<svg width="370" height="114" viewBox="0 0 370 114" fill="none" xmlns="http://www.w3.org/2000/svg">
<path d="M87.0288 50.618C85.4168 50.618 84.0735 50.06 82.9988 48.944C81.9241 47.828 81.3868 46.4847 81.3868 44.914C81.3868 43.2607 81.9241 41.8967 82.9988 40.822C84.0735 39.706 85.4168 39.148 87.0288 39.148C88.6821 39.148 90.0255 39.706 91.0588 40.822C92.1335 41.8967 92.6708 43.2607 92.6708 44.914C92.6708 46.4847 92.1335 47.828 91.0588 48.944C90.0255 50.06 88.6821 50.618 87.0288 50.618ZM87.0288 32.266C85.4168 32.266 84.0735 31.708 82.9988 30.592C81.9241 29.476 81.3868 28.1327 81.3868 26.562C81.3868 24.9087 81.9241 23.5447 82.9988 22.47C84.0735 21.354 85.4168 20.796 87.0288 20.796C88.6821 20.796 90.0255 21.354 91.0588 22.47C92.1335 23.5447 92.6708 24.9087 92.6708 26.562C92.6708 28.1327 92.1335 29.476 91.0588 30.592C90.0255 31.708 88.6821 32.266 87.0288 32.266Z" fill="white"/>
<path d="M286.029 53.618C284.417 53.618 283.073 53.06 281.999 51.944C280.924 50.828 280.387 49.4847 280.387 47.914C280.387 46.2607 280.924 44.8967 281.999 43.822C283.073 42.706 284.417 42.148 286.029 42.148C287.682 42.148 289.025 42.706 290.059 43.822C291.133 44.8967 291.671 46.2607 291.671 47.914C291.671 49.4847 291.133 50.828 290.059 51.944C289.025 53.06 287.682 53.618 286.029 53.618ZM286.029 35.266C284.417 35.266 283.073 34.708 281.999 33.592C280.924 32.476 280.387 31.1327 280.387 29.562C280.387 27.9087 280.924 26.5447 281.999 25.47C283.073 24.354 284.417 23.796 286.029 23.796C287.682 23.796 289.025 24.354 290.059 25.47C291.133 26.5447 291.671 27.9087 291.671 29.562C291.671 31.1327 291.133 32.476 290.059 33.592C289.025 34.708 287.682 35.266 286.029 35.266Z" fill="white"/>
<path d="M13.9113 109.022V106.922H17.5913C18.5513 106.922 19.3913 106.715 20.1113 106.302C20.8447 105.889 21.4113 105.315 21.8113 104.582C22.2247 103.835 22.4313 102.975 22.4313 102.002C22.4313 101.042 22.2247 100.195 21.8113 99.462C21.398 98.7286 20.8247 98.1553 20.0913 97.742C19.3713 97.3286 18.538 97.122 17.5913 97.122H13.9113V95.022H17.6513C18.6647 95.022 19.6047 95.202 20.4713 95.562C21.338 95.9086 22.0913 96.402 22.7313 97.042C23.3847 97.6686 23.8913 98.4086 24.2513 99.262C24.6113 100.102 24.7913 101.022 24.7913 102.022C24.7913 103.009 24.6113 103.929 24.2513 104.782C23.8913 105.635 23.3913 106.382 22.7513 107.022C22.1113 107.649 21.358 108.142 20.4913 108.502C19.6247 108.849 18.6913 109.022 17.6913 109.022H13.9113ZM12.3313 109.022V95.022H14.6313V109.022H12.3313ZM30.856 109.222C29.9893 109.222 29.2027 109.002 28.496 108.562C27.8027 108.122 27.2493 107.529 26.836 106.782C26.436 106.022 26.236 105.175 26.236 104.242C26.236 103.295 26.436 102.449 26.836 101.702C27.2493 100.942 27.8027 100.342 28.496 99.902C29.2027 99.4486 29.9893 99.222 30.856 99.222C31.5893 99.222 32.236 99.382 32.796 99.702C33.3693 100.009 33.8227 100.435 34.156 100.982C34.4893 101.529 34.656 102.149 34.656 102.842V105.602C34.656 106.295 34.4893 106.915 34.156 107.462C33.836 108.009 33.3893 108.442 32.816 108.762C32.2427 109.069 31.5893 109.222 30.856 109.222ZM31.216 107.142C32.0293 107.142 32.6827 106.869 33.176 106.322C33.6827 105.775 33.936 105.075 33.936 104.222C33.936 103.649 33.8227 103.142 33.596 102.702C33.3693 102.262 33.0493 101.922 32.636 101.682C32.236 101.429 31.7627 101.302 31.216 101.302C30.6827 101.302 30.2093 101.429 29.796 101.682C29.396 101.922 29.076 102.262 28.836 102.702C28.6093 103.142 28.496 103.649 28.496 104.222C28.496 104.795 28.6093 105.302 28.836 105.742C29.076 106.182 29.396 106.529 29.796 106.782C30.2093 107.022 30.6827 107.142 31.216 107.142ZM33.796 109.022V106.442L34.176 104.102L33.796 101.782V99.422H35.996V109.022H33.796ZM41.5376 109.122L37.4376 99.422H39.8576L42.6576 106.542H41.9576L44.9176 99.422H47.3576L42.8976 109.122H41.5376ZM38.6776 113.022L41.6576 106.882L42.8976 109.122L41.1176 113.022H38.6776ZM51.5776 109.222C51.0442 109.222 50.5309 109.155 50.0376 109.022C49.5442 108.875 49.0909 108.675 48.6776 108.422C48.2642 108.155 47.9042 107.835 47.5976 107.462L48.9976 106.062C49.3309 106.449 49.7109 106.742 50.1376 106.942C50.5776 107.129 51.0709 107.222 51.6176 107.222C52.1109 107.222 52.4842 107.149 52.7376 107.002C52.9909 106.855 53.1176 106.642 53.1176 106.362C53.1176 106.069 52.9976 105.842 52.7576 105.682C52.5176 105.522 52.2042 105.389 51.8176 105.282C51.4442 105.162 51.0442 105.042 50.6176 104.922C50.2042 104.802 49.8042 104.642 49.4176 104.442C49.0442 104.229 48.7376 103.942 48.4976 103.582C48.2576 103.222 48.1376 102.755 48.1376 102.182C48.1376 101.569 48.2776 101.042 48.5576 100.602C48.8509 100.162 49.2576 99.822 49.7776 99.582C50.3109 99.342 50.9442 99.222 51.6776 99.222C52.4509 99.222 53.1309 99.362 53.7176 99.642C54.3176 99.9086 54.8176 100.315 55.2176 100.862L53.8176 102.262C53.5376 101.915 53.2176 101.655 52.8576 101.482C52.4976 101.309 52.0842 101.222 51.6176 101.222C51.1776 101.222 50.8376 101.289 50.5976 101.422C50.3576 101.555 50.2376 101.749 50.2376 102.002C50.2376 102.269 50.3576 102.475 50.5976 102.622C50.8376 102.769 51.1442 102.895 51.5176 103.002C51.9042 103.109 52.3042 103.229 52.7176 103.362C53.1442 103.482 53.5442 103.655 53.9176 103.882C54.3042 104.095 54.6176 104.389 54.8576 104.762C55.0976 105.122 55.2176 105.595 55.2176 106.182C55.2176 107.115 54.8909 107.855 54.2376 108.402C53.5842 108.949 52.6976 109.222 51.5776 109.222Z" fill="white"/>
<path d="M113.525 109.922V95.9219H115.825V109.922H113.525ZM122.425 109.922V95.9219H124.725V109.922H122.425ZM115.105 103.722V101.622H122.925V103.722H115.105ZM131.863 110.122C130.93 110.122 130.083 109.902 129.323 109.462C128.563 109.009 127.956 108.402 127.503 107.642C127.063 106.882 126.843 106.035 126.843 105.102C126.843 104.169 127.063 103.329 127.503 102.582C127.956 101.835 128.563 101.242 129.323 100.802C130.083 100.349 130.93 100.122 131.863 100.122C132.81 100.122 133.663 100.342 134.423 100.782C135.183 101.222 135.783 101.822 136.223 102.582C136.676 103.329 136.903 104.169 136.903 105.102C136.903 106.035 136.676 106.882 136.223 107.642C135.783 108.402 135.183 109.009 134.423 109.462C133.663 109.902 132.81 110.122 131.863 110.122ZM131.863 108.002C132.41 108.002 132.89 107.882 133.303 107.642C133.73 107.389 134.056 107.042 134.283 106.602C134.523 106.162 134.643 105.662 134.643 105.102C134.643 104.542 134.523 104.049 134.283 103.622C134.043 103.195 133.716 102.862 133.303 102.622C132.89 102.369 132.41 102.242 131.863 102.242C131.33 102.242 130.85 102.369 130.423 102.622C130.01 102.862 129.683 103.195 129.443 103.622C129.216 104.049 129.103 104.542 129.103 105.102C129.103 105.662 129.216 106.162 129.443 106.602C129.683 107.042 130.01 107.389 130.423 107.642C130.85 107.882 131.33 108.002 131.863 108.002ZM142.672 110.122C141.859 110.122 141.132 109.942 140.492 109.582C139.866 109.222 139.372 108.729 139.012 108.102C138.666 107.462 138.492 106.729 138.492 105.902V100.322H140.692V105.802C140.692 106.269 140.766 106.669 140.912 107.002C141.072 107.322 141.299 107.569 141.592 107.742C141.899 107.915 142.259 108.002 142.672 108.002C143.312 108.002 143.799 107.815 144.132 107.442C144.479 107.055 144.652 106.509 144.652 105.802V100.322H146.852V105.902C146.852 106.742 146.672 107.482 146.312 108.122C145.966 108.749 145.479 109.242 144.852 109.602C144.226 109.949 143.499 110.122 142.672 110.122ZM149.065 109.922V100.322H151.265V109.922H149.065ZM151.265 104.582L150.505 104.202C150.505 102.989 150.771 102.009 151.305 101.262C151.851 100.502 152.671 100.122 153.765 100.122C154.245 100.122 154.678 100.209 155.065 100.382C155.451 100.555 155.811 100.835 156.145 101.222L154.705 102.702C154.531 102.515 154.338 102.382 154.125 102.302C153.911 102.222 153.665 102.182 153.385 102.182C152.771 102.182 152.265 102.375 151.865 102.762C151.465 103.149 151.265 103.755 151.265 104.582ZM160.134 110.122C159.601 110.122 159.088 110.055 158.594 109.922C158.101 109.775 157.648 109.575 157.234 109.322C156.821 109.055 156.461 108.735 156.154 108.362L157.554 106.962C157.888 107.349 158.268 107.642 158.694 107.842C159.134 108.029 159.628 108.122 160.174 108.122C160.668 108.122 161.041 108.049 161.294 107.902C161.548 107.755 161.674 107.542 161.674 107.262C161.674 106.969 161.554 106.742 161.314 106.582C161.074 106.422 160.761 106.289 160.374 106.182C160.001 106.062 159.601 105.942 159.174 105.822C158.761 105.702 158.361 105.542 157.974 105.342C157.601 105.129 157.294 104.842 157.054 104.482C156.814 104.122 156.694 103.655 156.694 103.082C156.694 102.469 156.834 101.942 157.114 101.502C157.408 101.062 157.814 100.722 158.334 100.482C158.868 100.242 159.501 100.122 160.234 100.122C161.008 100.122 161.688 100.262 162.274 100.542C162.874 100.809 163.374 101.215 163.774 101.762L162.374 103.162C162.094 102.815 161.774 102.555 161.414 102.382C161.054 102.209 160.641 102.122 160.174 102.122C159.734 102.122 159.394 102.189 159.154 102.322C158.914 102.455 158.794 102.649 158.794 102.902C158.794 103.169 158.914 103.375 159.154 103.522C159.394 103.669 159.701 103.795 160.074 103.902C160.461 104.009 160.861 104.129 161.274 104.262C161.701 104.382 162.101 104.555 162.474 104.782C162.861 104.995 163.174 105.289 163.414 105.662C163.654 106.022 163.774 106.495 163.774 107.082C163.774 108.015 163.448 108.755 162.794 109.302C162.141 109.849 161.254 110.122 160.134 110.122Z" fill="white"/>
<rect x="1" y="1.0332" width="70.0221" height="65.9662" rx="25" fill="white" stroke="#EA4334" stroke-width="2"/>
<path d="M28.8041 43.166C27.5928 43.166 26.4811 42.8287 25.4691 42.154C24.4724 41.464 23.6751 40.498 23.0771 39.256C22.4791 38.014 22.1801 36.5497 22.1801 34.863C22.1801 33.1764 22.4714 31.7197 23.0541 30.493C23.6521 29.251 24.4494 28.2927 25.4461 27.618C26.4428 26.9434 27.5468 26.606 28.7581 26.606C29.9848 26.606 31.0964 26.9434 32.0931 27.618C33.0898 28.2927 33.8794 29.251 34.4621 30.493C35.0601 31.7197 35.3591 33.184 35.3591 34.886C35.3591 36.5727 35.0601 38.037 34.4621 39.279C33.8794 40.521 33.0898 41.4794 32.0931 42.154C31.1118 42.8287 30.0154 43.166 28.8041 43.166ZM28.7581 40.682C29.5554 40.682 30.2454 40.4674 30.8281 40.038C31.4108 39.6087 31.8631 38.9647 32.1851 38.106C32.5224 37.2474 32.6911 36.1664 32.6911 34.863C32.6911 33.575 32.5224 32.5017 32.1851 31.643C31.8631 30.7844 31.4031 30.148 30.8051 29.734C30.2224 29.3047 29.5401 29.09 28.7581 29.09C27.9761 29.09 27.2861 29.3047 26.6881 29.734C26.1054 30.148 25.6531 30.7844 25.3311 31.643C25.0091 32.4864 24.8481 33.5597 24.8481 34.863C24.8481 36.1664 25.0091 37.2474 25.3311 38.106C25.6531 38.9647 26.1054 39.6087 26.6881 40.038C27.2861 40.4674 27.9761 40.682 28.7581 40.682ZM43.8754 43.166C42.6641 43.166 41.5524 42.8287 40.5404 42.154C39.5437 41.464 38.7464 40.498 38.1484 39.256C37.5504 38.014 37.2514 36.5497 37.2514 34.863C37.2514 33.1764 37.5427 31.7197 38.1254 30.493C38.7234 29.251 39.5207 28.2927 40.5174 27.618C41.5141 26.9434 42.6181 26.606 43.8294 26.606C45.0561 26.606 46.1677 26.9434 47.1644 27.618C48.1611 28.2927 48.9507 29.251 49.5334 30.493C50.1314 31.7197 50.4304 33.184 50.4304 34.886C50.4304 36.5727 50.1314 38.037 49.5334 39.279C48.9507 40.521 48.1611 41.4794 47.1644 42.154C46.1831 42.8287 45.0867 43.166 43.8754 43.166ZM43.8294 40.682C44.6267 40.682 45.3167 40.4674 45.8994 40.038C46.4821 39.6087 46.9344 38.9647 47.2564 38.106C47.5937 37.2474 47.7624 36.1664 47.7624 34.863C47.7624 33.575 47.5937 32.5017 47.2564 31.643C46.9344 30.7844 46.4744 30.148 45.8764 29.734C45.2937 29.3047 44.6114 29.09 43.8294 29.09C43.0474 29.09 42.3574 29.3047 41.7594 29.734C41.1767 30.148 40.7244 30.7844 40.4024 31.643C40.0804 32.4864 39.9194 33.5597 39.9194 34.863C39.9194 36.1664 40.0804 37.2474 40.4024 38.106C40.7244 38.9647 41.1767 39.6087 41.7594 40.038C42.3574 40.4674 43.0474 40.682 43.8294 40.682Z" fill="#EA4334"/>
<rect x="104.527" y="1" width="70.0221" height="65.9662" rx="25" fill="white" stroke="#EA4334" stroke-width="2"/>
<path d="M134.252 43.166C133.041 43.166 131.929 42.8287 130.917 42.154C129.92 41.464 129.123 40.498 128.525 39.256C127.927 38.014 127.628 36.5497 127.628 34.863C127.628 33.1764 127.919 31.7197 128.502 30.493C129.1 29.251 129.897 28.2927 130.894 27.618C131.891 26.9434 132.995 26.606 134.206 26.606C135.433 26.606 136.544 26.9434 137.541 27.618C138.538 28.2927 139.327 29.251 139.91 30.493C140.508 31.7197 140.807 33.184 140.807 34.886C140.807 36.5727 140.508 38.037 139.91 39.279C139.327 40.521 138.538 41.4794 137.541 42.154C136.56 42.8287 135.463 43.166 134.252 43.166ZM134.206 40.682C135.003 40.682 135.693 40.4674 136.276 40.038C136.859 39.6087 137.311 38.9647 137.633 38.106C137.97 37.2474 138.139 36.1664 138.139 34.863C138.139 33.575 137.97 32.5017 137.633 31.643C137.311 30.7844 136.851 30.148 136.253 29.734C135.67 29.3047 134.988 29.09 134.206 29.09C133.424 29.09 132.734 29.3047 132.136 29.734C131.553 30.148 131.101 30.7844 130.779 31.643C130.457 32.4864 130.296 33.5597 130.296 34.863C130.296 36.1664 130.457 37.2474 130.779 38.106C131.101 38.9647 131.553 39.6087 132.136 40.038C132.734 40.4674 133.424 40.682 134.206 40.682ZM145.574 42.936V26.836H148.173V42.936H145.574ZM142.354 29.205V26.836H147.943V29.205H142.354Z" fill="#EA4334"/>
<rect x="203.102" y="1" width="70.0221" height="65.9662" rx="25" fill="white" stroke="#EA4334" stroke-width="2"/>
<path d="M224.948 37.186L230.675 26.836H233.665L227.8 37.186H224.948ZM224.948 38.796V37.186L226.075 36.427H237.437V38.796H224.948ZM232.584 42.936V32.402H235.183V42.936H232.584ZM243.461 43.166C242.342 43.166 241.345 42.9744 240.471 42.591C239.597 42.1924 238.861 41.6174 238.263 40.866L240.057 39.072C240.379 39.5627 240.831 39.9537 241.414 40.245C242.012 40.5364 242.679 40.682 243.415 40.682C244.09 40.682 244.68 40.5594 245.186 40.314C245.692 40.0687 246.091 39.716 246.382 39.256C246.673 38.796 246.819 38.2517 246.819 37.623C246.819 36.9637 246.673 36.4194 246.382 35.99C246.106 35.5454 245.73 35.2157 245.255 35.001C244.795 34.771 244.297 34.656 243.76 34.656C243.147 34.656 242.595 34.725 242.104 34.863C241.629 35.001 241.161 35.2464 240.701 35.599L240.77 33.943C241.015 33.621 241.299 33.3604 241.621 33.161C241.943 32.9464 242.319 32.7854 242.748 32.678C243.177 32.5707 243.683 32.517 244.266 32.517C245.401 32.517 246.351 32.7547 247.118 33.23C247.9 33.7054 248.49 34.3417 248.889 35.139C249.288 35.921 249.487 36.795 249.487 37.761C249.487 38.8037 249.226 39.7314 248.705 40.544C248.199 41.3567 247.494 42.0007 246.589 42.476C245.684 42.936 244.642 43.166 243.461 43.166ZM240.701 35.599L239.252 34.15L239.965 26.836H242.38L241.552 34.449L240.701 35.599ZM240.425 29.205L239.965 26.836H248.59V29.205H240.425Z" fill="#EA4334"/>
<rect x="298.975" y="1" width="70.0221" height="65.9662" rx="25" fill="white" stroke="#EA4334" stroke-width="2"/>
<path d="M327.512 39.166C326.393 39.166 325.396 38.9744 324.522 38.591C323.648 38.1924 322.912 37.6174 322.314 36.866L324.108 35.072C324.43 35.5627 324.883 35.9537 325.465 36.245C326.063 36.5364 326.73 36.682 327.466 36.682C328.141 36.682 328.731 36.5594 329.237 36.314C329.743 36.0687 330.142 35.716 330.433 35.256C330.725 34.796 330.87 34.2517 330.87 33.623C330.87 32.9637 330.725 32.4194 330.433 31.99C330.157 31.5454 329.782 31.2157 329.306 31.001C328.846 30.771 328.348 30.656 327.811 30.656C327.198 30.656 326.646 30.725 326.155 30.863C325.68 31.001 325.212 31.2464 324.752 31.599L324.821 29.943C325.067 29.621 325.35 29.3604 325.672 29.161C325.994 28.9464 326.37 28.7854 326.799 28.678C327.229 28.5707 327.735 28.517 328.317 28.517C329.452 28.517 330.403 28.7547 331.169 29.23C331.951 29.7054 332.542 30.3417 332.94 31.139C333.339 31.921 333.538 32.795 333.538 33.761C333.538 34.8037 333.278 35.7314 332.756 36.544C332.25 37.3567 331.545 38.0007 330.64 38.476C329.736 38.936 328.693 39.166 327.512 39.166ZM324.752 31.599L323.303 30.15L324.016 22.836H326.431L325.603 30.449L324.752 31.599ZM324.476 25.205L324.016 22.836H332.641V25.205H324.476ZM340.023 39.166C338.949 39.166 337.976 38.9744 337.102 38.591C336.243 38.1924 335.515 37.6174 334.917 36.866L336.711 35.072C337.033 35.5627 337.485 35.9537 338.068 36.245C338.65 36.5364 339.287 36.682 339.977 36.682C340.636 36.682 341.203 36.5594 341.679 36.314C342.154 36.0687 342.522 35.7237 342.783 35.279C343.059 34.8344 343.197 34.3207 343.197 33.738C343.197 33.1247 343.059 32.6034 342.783 32.174C342.522 31.7447 342.139 31.415 341.633 31.185C341.142 30.9397 340.544 30.817 339.839 30.817C339.563 30.817 339.279 30.84 338.988 30.886C338.696 30.9167 338.436 30.9704 338.206 31.047L339.379 29.529C339.701 29.4064 340.038 29.3067 340.391 29.23C340.759 29.138 341.111 29.092 341.449 29.092C342.277 29.092 343.02 29.2914 343.68 29.69C344.354 30.0887 344.883 30.6484 345.267 31.369C345.665 32.0744 345.865 32.91 345.865 33.876C345.865 34.9187 345.619 35.8387 345.129 36.636C344.638 37.4334 343.956 38.0544 343.082 38.499C342.208 38.9437 341.188 39.166 340.023 39.166ZM338.206 31.047V29.483L342.507 24.469L345.681 24.4L341.196 29.552L338.206 31.047ZM335.722 25.205V22.836H345.681V24.4L343.404 25.205H335.722Z" fill="#EA4334"/>
<path d="M188.029 50.618C186.417 50.618 185.073 50.06 183.999 48.944C182.924 47.828 182.387 46.4847 182.387 44.914C182.387 43.2607 182.924 41.8967 183.999 40.822C185.073 39.706 186.417 39.148 188.029 39.148C189.682 39.148 191.025 39.706 192.059 40.822C193.133 41.8967 193.671 43.2607 193.671 44.914C193.671 46.4847 193.133 47.828 192.059 48.944C191.025 50.06 189.682 50.618 188.029 50.618ZM188.029 32.266C186.417 32.266 185.073 31.708 183.999 30.592C182.924 29.476 182.387 28.1327 182.387 26.562C182.387 24.9087 182.924 23.5447 183.999 22.47C185.073 21.354 186.417 20.796 188.029 20.796C189.682 20.796 191.025 21.354 192.059 22.47C193.133 23.5447 193.671 24.9087 193.671 26.562C193.671 28.1327 193.133 29.476 192.059 30.592C191.025 31.708 189.682 32.266 188.029 32.266Z" fill="white"/>
<path d="M206.573 111.722V98.4222H208.093L213.622 107.523H212.634L218.163 98.4222H219.683V111.722H217.498V102.26L217.992 102.393L213.888 109.138H212.368L208.264 102.393L208.758 102.26V111.722H206.573ZM222.301 111.722V102.602H224.391V111.722H222.301ZM223.346 100.93C222.992 100.93 222.694 100.81 222.453 100.569C222.225 100.329 222.111 100.031 222.111 99.6762C222.111 99.3215 222.225 99.0238 222.453 98.7832C222.694 98.5425 222.992 98.4222 223.346 98.4222C223.714 98.4222 224.011 98.5425 224.239 98.7832C224.467 99.0238 224.581 99.3215 224.581 99.6762C224.581 100.031 224.467 100.329 224.239 100.569C224.011 100.81 223.714 100.93 223.346 100.93ZM232.986 111.722V106.459C232.986 105.851 232.79 105.351 232.397 104.958C232.017 104.566 231.523 104.369 230.915 104.369C230.51 104.369 230.149 104.458 229.832 104.635C229.516 104.813 229.269 105.06 229.091 105.376C228.914 105.693 228.825 106.054 228.825 106.459L228.008 106.003C228.008 105.307 228.16 104.692 228.464 104.16C228.768 103.616 229.186 103.191 229.718 102.887C230.263 102.571 230.871 102.412 231.542 102.412C232.226 102.412 232.834 102.59 233.366 102.944C233.898 103.286 234.316 103.736 234.62 104.293C234.924 104.838 235.076 105.408 235.076 106.003V111.722H232.986ZM226.735 111.722V102.602H228.825V111.722H226.735ZM240.943 111.912C240.171 111.912 239.48 111.741 238.872 111.399C238.277 111.057 237.808 110.589 237.466 109.993C237.137 109.385 236.972 108.689 236.972 107.903V102.602H239.062V107.808C239.062 108.252 239.132 108.632 239.271 108.948C239.423 109.252 239.639 109.487 239.917 109.651C240.209 109.816 240.551 109.898 240.943 109.898C241.551 109.898 242.014 109.721 242.33 109.366C242.66 108.999 242.824 108.48 242.824 107.808V102.602H244.914V107.903C244.914 108.701 244.743 109.404 244.401 110.012C244.072 110.608 243.61 111.076 243.014 111.418C242.419 111.748 241.729 111.912 240.943 111.912ZM248.403 111.722V98.8022H250.493V111.722H248.403ZM246.218 104.502V102.602H252.678V104.502H246.218ZM258.174 111.912C257.262 111.912 256.438 111.71 255.704 111.304C254.982 110.886 254.405 110.316 253.975 109.594C253.557 108.872 253.348 108.062 253.348 107.162C253.348 106.263 253.557 105.459 253.975 104.749C254.393 104.027 254.956 103.457 255.666 103.039C256.388 102.621 257.186 102.412 258.06 102.412C258.908 102.412 259.656 102.609 260.302 103.001C260.96 103.394 261.473 103.932 261.841 104.616C262.221 105.3 262.411 106.079 262.411 106.953C262.411 107.105 262.398 107.264 262.373 107.428C262.36 107.58 262.335 107.751 262.297 107.941H254.811V106.231H261.214L260.435 106.915C260.409 106.358 260.302 105.889 260.112 105.509C259.922 105.129 259.649 104.838 259.295 104.635C258.953 104.433 258.528 104.331 258.022 104.331C257.49 104.331 257.027 104.445 256.635 104.673C256.242 104.901 255.938 105.224 255.723 105.642C255.507 106.048 255.4 106.535 255.4 107.105C255.4 107.675 255.514 108.176 255.742 108.606C255.97 109.037 256.293 109.373 256.711 109.613C257.129 109.841 257.61 109.955 258.155 109.955C258.623 109.955 259.054 109.873 259.447 109.708C259.852 109.544 260.194 109.303 260.473 108.986L261.803 110.335C261.359 110.855 260.821 111.247 260.188 111.513C259.554 111.779 258.883 111.912 258.174 111.912ZM267.069 111.912C266.562 111.912 266.075 111.849 265.606 111.722C265.137 111.583 264.707 111.393 264.314 111.152C263.921 110.899 263.579 110.595 263.288 110.24L264.618 108.91C264.935 109.278 265.296 109.556 265.701 109.746C266.119 109.924 266.588 110.012 267.107 110.012C267.576 110.012 267.93 109.943 268.171 109.803C268.412 109.664 268.532 109.461 268.532 109.195C268.532 108.917 268.418 108.701 268.19 108.549C267.962 108.397 267.664 108.271 267.297 108.169C266.942 108.055 266.562 107.941 266.157 107.827C265.764 107.713 265.384 107.561 265.017 107.371C264.662 107.169 264.371 106.896 264.143 106.554C263.915 106.212 263.801 105.769 263.801 105.224C263.801 104.642 263.934 104.141 264.2 103.723C264.479 103.305 264.865 102.982 265.359 102.754C265.866 102.526 266.467 102.412 267.164 102.412C267.899 102.412 268.545 102.545 269.102 102.811C269.672 103.065 270.147 103.451 270.527 103.97L269.197 105.3C268.931 104.971 268.627 104.724 268.285 104.559C267.943 104.395 267.55 104.312 267.107 104.312C266.689 104.312 266.366 104.376 266.138 104.502C265.91 104.629 265.796 104.813 265.796 105.053C265.796 105.307 265.91 105.503 266.138 105.642C266.366 105.782 266.657 105.902 267.012 106.003C267.379 106.105 267.759 106.219 268.152 106.345C268.557 106.459 268.937 106.624 269.292 106.839C269.659 107.042 269.957 107.321 270.185 107.675C270.413 108.017 270.527 108.467 270.527 109.024C270.527 109.911 270.217 110.614 269.596 111.133C268.975 111.653 268.133 111.912 267.069 111.912Z" fill="white"/>
<path d="M305.691 112.803C304.695 112.803 303.849 112.623 303.153 112.263C302.457 111.903 301.833 111.375 301.281 110.679L302.685 109.275C303.033 109.779 303.447 110.175 303.927 110.463C304.407 110.739 305.019 110.877 305.763 110.877C306.459 110.877 307.011 110.733 307.419 110.445C307.839 110.157 308.049 109.761 308.049 109.257C308.049 108.837 307.941 108.495 307.725 108.231C307.509 107.967 307.221 107.751 306.861 107.583C306.513 107.403 306.123 107.247 305.691 107.115C305.271 106.971 304.845 106.815 304.413 106.647C303.993 106.467 303.603 106.245 303.243 105.981C302.895 105.717 302.613 105.375 302.397 104.955C302.181 104.535 302.073 104.001 302.073 103.353C302.073 102.609 302.253 101.979 302.613 101.463C302.985 100.935 303.483 100.533 304.107 100.257C304.731 99.9806 305.427 99.8426 306.195 99.8426C307.023 99.8426 307.761 100.005 308.409 100.329C309.069 100.653 309.603 101.067 310.011 101.571L308.607 102.975C308.247 102.567 307.869 102.267 307.473 102.075C307.089 101.871 306.645 101.769 306.141 101.769C305.517 101.769 305.025 101.895 304.665 102.147C304.317 102.399 304.143 102.753 304.143 103.209C304.143 103.593 304.251 103.905 304.467 104.145C304.683 104.373 304.965 104.571 305.313 104.739C305.673 104.895 306.063 105.045 306.483 105.189C306.915 105.333 307.341 105.495 307.761 105.675C308.193 105.855 308.583 106.089 308.931 106.377C309.291 106.653 309.579 107.013 309.795 107.457C310.011 107.901 310.119 108.459 310.119 109.131C310.119 110.259 309.717 111.153 308.913 111.813C308.121 112.473 307.047 112.803 305.691 112.803ZM315.822 112.803C314.958 112.803 314.178 112.611 313.482 112.227C312.798 111.831 312.252 111.291 311.844 110.607C311.448 109.923 311.25 109.155 311.25 108.303C311.25 107.451 311.448 106.689 311.844 106.017C312.24 105.333 312.774 104.793 313.446 104.397C314.13 104.001 314.886 103.803 315.714 103.803C316.518 103.803 317.226 103.989 317.838 104.361C318.462 104.733 318.948 105.243 319.296 105.891C319.656 106.539 319.836 107.277 319.836 108.105C319.836 108.249 319.824 108.399 319.8 108.555C319.788 108.699 319.764 108.861 319.728 109.041H312.636V107.421H318.702L317.964 108.069C317.94 107.541 317.838 107.097 317.658 106.737C317.478 106.377 317.22 106.101 316.884 105.909C316.56 105.717 316.158 105.621 315.678 105.621C315.174 105.621 314.736 105.729 314.364 105.945C313.992 106.161 313.704 106.467 313.5 106.863C313.296 107.247 313.194 107.709 313.194 108.249C313.194 108.789 313.302 109.263 313.518 109.671C313.734 110.079 314.04 110.397 314.436 110.625C314.832 110.841 315.288 110.949 315.804 110.949C316.248 110.949 316.656 110.871 317.028 110.715C317.412 110.559 317.736 110.331 318 110.031L319.26 111.309C318.84 111.801 318.33 112.173 317.73 112.425C317.13 112.677 316.494 112.803 315.822 112.803ZM325.401 112.803C324.549 112.803 323.775 112.605 323.079 112.209C322.395 111.813 321.855 111.273 321.459 110.589C321.063 109.905 320.865 109.143 320.865 108.303C320.865 107.451 321.063 106.689 321.459 106.017C321.855 105.333 322.395 104.793 323.079 104.397C323.775 104.001 324.549 103.803 325.401 103.803C326.073 103.803 326.697 103.935 327.273 104.199C327.861 104.451 328.359 104.817 328.767 105.297L327.471 106.611C327.219 106.311 326.913 106.089 326.553 105.945C326.205 105.789 325.821 105.711 325.401 105.711C324.909 105.711 324.471 105.825 324.087 106.053C323.715 106.269 323.421 106.569 323.205 106.953C323.001 107.337 322.899 107.787 322.899 108.303C322.899 108.807 323.001 109.257 323.205 109.653C323.421 110.037 323.715 110.343 324.087 110.571C324.471 110.787 324.909 110.895 325.401 110.895C325.821 110.895 326.205 110.823 326.553 110.679C326.913 110.523 327.219 110.295 327.471 109.995L328.767 111.309C328.359 111.789 327.861 112.161 327.273 112.425C326.697 112.677 326.073 112.803 325.401 112.803ZM333.979 112.803C333.139 112.803 332.377 112.605 331.693 112.209C331.009 111.801 330.463 111.255 330.055 110.571C329.659 109.887 329.461 109.125 329.461 108.285C329.461 107.445 329.659 106.689 330.055 106.017C330.463 105.345 331.009 104.811 331.693 104.415C332.377 104.007 333.139 103.803 333.979 103.803C334.831 103.803 335.599 104.001 336.283 104.397C336.967 104.793 337.507 105.333 337.903 106.017C338.311 106.689 338.515 107.445 338.515 108.285C338.515 109.125 338.311 109.887 337.903 110.571C337.507 111.255 336.967 111.801 336.283 112.209C335.599 112.605 334.831 112.803 333.979 112.803ZM333.979 110.895C334.471 110.895 334.903 110.787 335.275 110.571C335.659 110.343 335.953 110.031 336.157 109.635C336.373 109.239 336.481 108.789 336.481 108.285C336.481 107.781 336.373 107.337 336.157 106.953C335.941 106.569 335.647 106.269 335.275 106.053C334.903 105.825 334.471 105.711 333.979 105.711C333.499 105.711 333.067 105.825 332.683 106.053C332.311 106.269 332.017 106.569 331.801 106.953C331.597 107.337 331.495 107.781 331.495 108.285C331.495 108.789 331.597 109.239 331.801 109.635C332.017 110.031 332.311 110.343 332.683 110.571C333.067 110.787 333.499 110.895 333.979 110.895ZM346.083 112.623V107.637C346.083 107.061 345.897 106.587 345.525 106.215C345.165 105.843 344.697 105.657 344.121 105.657C343.737 105.657 343.395 105.741 343.095 105.909C342.795 106.077 342.561 106.311 342.393 106.611C342.225 106.911 342.141 107.253 342.141 107.637L341.367 107.205C341.367 106.545 341.511 105.963 341.799 105.459C342.087 104.943 342.483 104.541 342.987 104.253C343.503 103.953 344.079 103.803 344.715 103.803C345.363 103.803 345.939 103.971 346.443 104.307C346.947 104.631 347.343 105.057 347.631 105.585C347.919 106.101 348.063 106.641 348.063 107.205V112.623H346.083ZM340.161 112.623V103.983H342.141V112.623H340.161ZM353.693 112.803C352.913 112.803 352.205 112.605 351.569 112.209C350.945 111.813 350.447 111.279 350.075 110.607C349.715 109.923 349.535 109.161 349.535 108.321C349.535 107.469 349.715 106.707 350.075 106.035C350.447 105.351 350.945 104.811 351.569 104.415C352.205 104.007 352.913 103.803 353.693 103.803C354.353 103.803 354.935 103.947 355.439 104.235C355.955 104.511 356.363 104.895 356.663 105.387C356.963 105.879 357.113 106.437 357.113 107.061V109.545C357.113 110.169 356.963 110.727 356.663 111.219C356.375 111.711 355.973 112.101 355.457 112.389C354.941 112.665 354.353 112.803 353.693 112.803ZM354.017 110.931C354.509 110.931 354.935 110.823 355.295 110.607C355.667 110.379 355.955 110.067 356.159 109.671C356.363 109.275 356.465 108.819 356.465 108.303C356.465 107.787 356.363 107.331 356.159 106.935C355.955 106.539 355.667 106.233 355.295 106.017C354.935 105.789 354.509 105.675 354.017 105.675C353.537 105.675 353.111 105.789 352.739 106.017C352.379 106.233 352.091 106.539 351.875 106.935C351.671 107.331 351.569 107.787 351.569 108.303C351.569 108.819 351.671 109.275 351.875 109.671C352.091 110.067 352.379 110.379 352.739 110.607C353.111 110.823 353.537 110.931 354.017 110.931ZM358.319 112.623H356.339V110.301L356.681 108.195L356.339 106.107V99.6626H358.319V112.623ZM363.343 112.803C362.863 112.803 362.401 112.743 361.957 112.623C361.513 112.491 361.105 112.311 360.733 112.083C360.361 111.843 360.037 111.555 359.761 111.219L361.021 109.959C361.321 110.307 361.663 110.571 362.047 110.751C362.443 110.919 362.887 111.003 363.379 111.003C363.823 111.003 364.159 110.937 364.387 110.805C364.615 110.673 364.729 110.481 364.729 110.229C364.729 109.965 364.621 109.761 364.405 109.617C364.189 109.473 363.907 109.353 363.559 109.257C363.223 109.149 362.863 109.041 362.479 108.933C362.107 108.825 361.747 108.681 361.399 108.501C361.063 108.309 360.787 108.051 360.571 107.727C360.355 107.403 360.247 106.983 360.247 106.467C360.247 105.915 360.373 105.441 360.625 105.045C360.889 104.649 361.255 104.343 361.723 104.127C362.203 103.911 362.773 103.803 363.433 103.803C364.129 103.803 364.741 103.929 365.269 104.181C365.809 104.421 366.259 104.787 366.619 105.279L365.359 106.539C365.107 106.227 364.819 105.993 364.495 105.837C364.171 105.681 363.799 105.603 363.379 105.603C362.983 105.603 362.677 105.663 362.461 105.783C362.245 105.903 362.137 106.077 362.137 106.305C362.137 106.545 362.245 106.731 362.461 106.863C362.677 106.995 362.953 107.109 363.289 107.205C363.637 107.301 363.997 107.409 364.369 107.529C364.753 107.637 365.113 107.793 365.449 107.997C365.797 108.189 366.079 108.453 366.295 108.789C366.511 109.113 366.619 109.539 366.619 110.067C366.619 110.907 366.325 111.573 365.737 112.065C365.149 112.557 364.351 112.803 363.343 112.803Z" fill="white"/>
</svg>
