<svg width="34" height="32" viewBox="0 0 34 32" fill="none" xmlns="http://www.w3.org/2000/svg">
<path d="M1.03048 12.0588C0.870583 12.6555 0.951562 13.2795 1.25906 13.8149L10.6573 30.0946C11.2971 31.1971 12.7174 31.5777 13.8204 30.9441L19.7831 27.5007C20.1517 27.2887 20.3399 26.861 20.2467 26.4446C20.1539 26.0303 19.8027 25.7223 19.3788 25.6854C19.0967 25.6613 18.8753 25.6252 18.6796 25.5727C16.6201 25.0209 15.3588 22.8872 15.9109 20.8268C16.4635 18.7645 18.577 17.7177 20.6364 18.2696C22.6987 18.8221 23.9709 20.7761 23.4183 22.8384C23.3666 23.0314 23.2865 23.2399 23.1673 23.4965C22.9825 23.8848 23.0775 24.34 23.3898 24.6275C23.7041 24.9155 24.1687 24.9663 24.5362 24.7541L30.0975 21.5441C31.1702 20.9216 31.562 19.4518 30.9471 18.3811L28.5948 14.3097C30.8574 14.1977 32.8941 12.647 33.5107 10.3457C34.2754 7.49182 32.5746 4.54731 29.7198 3.78236C27.4175 3.16547 25.0577 4.15234 23.8299 6.05788L21.5483 2.10327C20.9081 0.998568 19.4887 0.61824 18.3831 1.25416L2.1046 10.6518C1.56729 10.9628 1.18543 11.4617 1.02553 12.0585L1.03048 12.0588ZM16.8728 26.9317L12.8494 29.2554C12.6754 29.3551 12.4467 29.2938 12.3445 29.1181L2.94773 12.8439C2.81801 12.6164 2.85327 12.4736 3.08505 12.3389L19.36 2.9434C19.5361 2.84331 19.7611 2.90359 19.8642 3.07953L23.175 8.81811C23.3824 9.17734 23.7948 9.36652 24.2019 9.28898C24.6091 9.21144 24.9246 8.88843 24.9824 8.47315L25.002 8.32504C25.0128 8.2432 25.0208 8.1606 25.043 8.07777C25.5297 6.26116 27.4023 5.18005 29.217 5.66631C31.0346 6.15332 32.1164 8.02705 31.6299 9.84272C31.1433 11.6584 29.2689 12.739 27.4523 12.2522C27.377 12.2321 27.3066 12.2011 27.236 12.1711L27.0737 12.1064C26.6879 11.9576 26.2509 12.0675 25.982 12.3818C25.7158 12.6939 25.6728 13.1444 25.8797 13.5015L29.2616 19.3549C29.3921 19.5836 29.3561 19.7253 29.1243 19.8599L25.5022 21.9511C25.5525 19.3386 23.778 17.0947 21.1434 16.3888C18.0458 15.5587 14.8622 17.2258 14.0319 20.3243C13.3262 22.958 14.5877 25.6708 16.8728 26.9317Z" fill="white"/>
</svg>
