<svg width="35" height="35" viewBox="0 0 35 35" fill="#1976D2" stroke="#1976D2" xmlns="http://www.w3.org/2000/svg">
<path d="M11.1835 13.8746C11.1835 11.6784 9.89507 9.86898 7.43297 9.46484C7.09404 9.57764 6.73215 9.64094 6.35638 9.64094C5.97937 9.64094 5.61803 9.57764 5.27903 9.46484C2.81755 9.86898 1.52856 11.6784 1.52856 13.8746H6.35638H11.1835Z" fill="white"/>
<path d="M6.35637 8.85806C7.81543 8.85806 8.9988 7.6753 8.9988 6.21624V5.46647C8.9988 4.0068 7.81536 2.82397 6.35637 2.82397C4.89669 2.82397 3.71387 4.00673 3.71387 5.46647V6.21624C3.7138 7.6753 4.89669 8.85806 6.35637 8.85806Z" fill="white"/>
<path d="M22.3274 13.8746C22.3274 11.6784 21.039 9.86898 18.5763 9.46484C18.2374 9.57764 17.876 9.64094 17.4996 9.64094C17.1233 9.64094 16.7613 9.57764 16.4224 9.46484C13.9609 9.86898 12.6719 11.6784 12.6719 13.8746H17.4996H22.3274Z" fill="white"/>
<path d="M17.4997 8.85806C18.9594 8.85806 20.1422 7.6753 20.1422 6.21624V5.46647C20.1422 4.0068 18.9593 2.82397 17.4997 2.82397C16.0401 2.82397 14.8579 4.00673 14.8579 5.46647V6.21624C14.8578 7.6753 16.0401 8.85806 17.4997 8.85806Z" fill="white"/>
<path d="M33.4717 13.8746C33.4717 11.6784 32.1827 9.86898 29.72 9.46484C29.381 9.57764 29.0203 9.64094 28.6439 9.64094C28.2675 9.64094 27.9056 9.57764 27.5667 9.46484C25.1045 9.86898 23.8162 11.6784 23.8162 13.8746H28.6439H33.4717Z" fill="white"/>
<path d="M28.6437 8.85806C30.1028 8.85806 31.2856 7.6753 31.2856 6.21624V5.46647C31.2856 4.0068 30.1028 2.82397 28.6437 2.82397C27.184 2.82397 26.0012 4.00673 26.0012 5.46647V6.21624C26.0013 7.6753 27.1841 8.85806 28.6437 8.85806Z" fill="white"/>
<path d="M35 15.739H0V18.2151H1.07304V32.176H33.9264V18.2151H35V15.739Z" fill="white"/>
</svg>