<svg width="34" height="34" viewBox="0 0 34 34" fill="none" xmlns="http://www.w3.org/2000/svg">
<path fill-rule="evenodd" clip-rule="evenodd" d="M19 28.658C20.1693 28.2433 21.1816 27.4768 21.8978 26.4637C22.6141 25.4507 22.9991 24.2407 23 23C22.9994 21.7592 22.6145 20.5491 21.8982 19.536C21.182 18.5229 20.1695 17.7564 19 17.342V1H15V17.342C13.8307 17.7567 12.8184 18.5232 12.1022 19.5363C11.3859 20.5493 11.0009 21.7593 11 23C11 25.612 12.672 27.834 15 28.658V33H19V28.658ZM9 16.658C10.1693 16.2433 11.1816 15.4768 11.8978 14.4637C12.6141 13.4507 12.9991 12.2407 13 11C12.9994 9.75924 12.6145 8.54914 11.8982 7.536C11.182 6.52286 10.1695 5.75641 9 5.342V1H5V5.342C3.83066 5.75666 2.81837 6.52317 2.10216 7.53626C1.38594 8.54934 1.00093 9.75931 1 11C1 13.612 2.672 15.834 5 16.658V33H9V16.658ZM29 16.658C30.1693 16.2433 31.1816 15.4768 31.8978 14.4637C32.6141 13.4507 32.9991 12.2407 33 11C32.9994 9.75924 32.6145 8.54914 31.8982 7.536C31.182 6.52286 30.1695 5.75641 29 5.342V1H25V5.342C23.8307 5.75666 22.8184 6.52317 22.1022 7.53626C21.3859 8.54934 21.0009 9.75931 21 11C21 13.612 22.672 15.834 25 16.658V33H29V16.658ZM25 13V9H29V13H25ZM5 13V9H9V13H5ZM15 25V21H19V25H15Z" fill="#1976D2" stroke="#1976D2" stroke-width="0.00064"/>
</svg>
