<svg width="423" height="187" viewBox="0 0 423 187" fill="none" xmlns="http://www.w3.org/2000/svg">
<ellipse cx="418.788" cy="3.82062" rx="3.81989" ry="3.3322" transform="rotate(90 418.788 3.82062)" fill="#1976D2"/>
<ellipse cx="418.788" cy="59.1605" rx="3.81989" ry="3.3322" transform="rotate(90 418.788 59.1605)" fill="#1976D2"/>
<ellipse cx="418.788" cy="114.5" rx="3.81989" ry="3.3322" transform="rotate(90 418.788 114.5)" fill="#1976D2"/>
<ellipse cx="418.788" cy="169.84" rx="3.81989" ry="3.3322" transform="rotate(90 418.788 169.84)" fill="#1976D2"/>
<ellipse cx="369.915" cy="3.81989" rx="3.81989" ry="3.3322" transform="rotate(90 369.915 3.81989)" fill="#1976D2"/>
<ellipse cx="369.915" cy="59.1605" rx="3.81989" ry="3.3322" transform="rotate(90 369.915 59.1605)" fill="#1976D2"/>
<ellipse cx="369.915" cy="114.5" rx="3.81989" ry="3.3322" transform="rotate(90 369.915 114.5)" fill="#1976D2"/>
<ellipse cx="369.915" cy="169.84" rx="3.81989" ry="3.3322" transform="rotate(90 369.915 169.84)" fill="#1976D2"/>
<ellipse cx="321.043" cy="3.81989" rx="3.81989" ry="3.3322" transform="rotate(90 321.043 3.81989)" fill="#1976D2"/>
<ellipse cx="321.043" cy="59.1605" rx="3.81989" ry="3.3322" transform="rotate(90 321.043 59.1605)" fill="#1976D2"/>
<ellipse cx="321.043" cy="114.5" rx="3.81989" ry="3.3322" transform="rotate(90 321.043 114.5)" fill="#1976D2"/>
<ellipse cx="321.043" cy="169.84" rx="3.81989" ry="3.3322" transform="rotate(90 321.043 169.84)" fill="#1976D2"/>
<ellipse cx="272.171" cy="3.81989" rx="3.81989" ry="3.3322" transform="rotate(90 272.171 3.81989)" fill="#1976D2"/>
<ellipse cx="272.171" cy="59.1605" rx="3.81989" ry="3.3322" transform="rotate(90 272.171 59.1605)" fill="#1976D2"/>
<ellipse cx="272.171" cy="114.5" rx="3.81989" ry="3.3322" transform="rotate(90 272.171 114.5)" fill="#1976D2"/>
<ellipse cx="272.171" cy="169.84" rx="3.81989" ry="3.3322" transform="rotate(90 272.171 169.84)" fill="#1976D2"/>
<ellipse cx="223.299" cy="3.81989" rx="3.81989" ry="3.3322" transform="rotate(90 223.299 3.81989)" fill="#1976D2"/>
<ellipse cx="223.299" cy="59.1605" rx="3.81989" ry="3.3322" transform="rotate(90 223.299 59.1605)" fill="#1976D2"/>
<ellipse cx="223.299" cy="114.5" rx="3.81989" ry="3.3322" transform="rotate(90 223.299 114.5)" fill="#1976D2"/>
<ellipse cx="223.299" cy="169.84" rx="3.81989" ry="3.3322" transform="rotate(90 223.299 169.84)" fill="#1976D2"/>
<ellipse cx="174.426" cy="3.81989" rx="3.81989" ry="3.3322" transform="rotate(90 174.426 3.81989)" fill="#1976D2"/>
<ellipse cx="174.426" cy="59.1605" rx="3.81989" ry="3.3322" transform="rotate(90 174.426 59.1605)" fill="#1976D2"/>
<ellipse cx="174.426" cy="114.5" rx="3.81989" ry="3.3322" transform="rotate(90 174.426 114.5)" fill="#1976D2"/>
<ellipse cx="174.426" cy="169.84" rx="3.81989" ry="3.3322" transform="rotate(90 174.426 169.84)" fill="#1976D2"/>
<ellipse cx="125.554" cy="3.81989" rx="3.81989" ry="3.3322" transform="rotate(90 125.554 3.81989)" fill="#1976D2"/>
<ellipse cx="125.554" cy="59.1605" rx="3.81989" ry="3.3322" transform="rotate(90 125.554 59.1605)" fill="#1976D2"/>
<ellipse cx="125.554" cy="114.5" rx="3.81989" ry="3.3322" transform="rotate(90 125.554 114.5)" fill="#1976D2"/>
<ellipse cx="125.554" cy="169.84" rx="3.81989" ry="3.3322" transform="rotate(90 125.554 169.84)" fill="#1976D2"/>
<ellipse cx="76.6817" cy="3.81989" rx="3.81989" ry="3.3322" transform="rotate(90 76.6817 3.81989)" fill="#1976D2"/>
<ellipse cx="76.6817" cy="59.1605" rx="3.81989" ry="3.3322" transform="rotate(90 76.6817 59.1605)" fill="#1976D2"/>
<ellipse cx="76.6817" cy="114.5" rx="3.81989" ry="3.3322" transform="rotate(90 76.6817 114.5)" fill="#1976D2"/>
<ellipse cx="76.6817" cy="169.84" rx="3.81989" ry="3.3322" transform="rotate(90 76.6817 169.84)" fill="#1976D2"/>
<ellipse cx="27.8095" cy="3.81989" rx="3.81989" ry="3.3322" transform="rotate(90 27.8095 3.81989)" fill="#1976D2"/>
<ellipse cx="27.8095" cy="59.1605" rx="3.81989" ry="3.3322" transform="rotate(90 27.8095 59.1605)" fill="#1976D2"/>
<ellipse cx="27.8096" cy="114.5" rx="3.81989" ry="3.3322" transform="rotate(90 27.8096 114.5)" fill="#1976D2"/>
<ellipse cx="27.8095" cy="169.84" rx="3.81989" ry="3.3322" transform="rotate(90 27.8095 169.84)" fill="#1976D2"/>
</svg>
