<svg width="20" height="20" viewBox="0 0 20 20" fill="none" xmlns="http://www.w3.org/2000/svg">
<g clip-path="url(#clip0_34_1704)">
<path d="M10.8286 10.3447L13.4355 7.73779C13.5233 7.63517 13.5693 7.50318 13.5641 7.36818C13.5588 7.23318 13.5029 7.10512 13.4073 7.00959C13.3118 6.91406 13.1838 6.8581 13.0488 6.85288C12.9138 6.84767 12.7818 6.89359 12.6792 6.98146L10.0723 9.56154L7.44926 6.93855C7.34665 6.85067 7.21465 6.80476 7.07965 6.80997C6.94465 6.81518 6.81659 6.87115 6.72106 6.96668C6.62553 7.06221 6.56957 7.19027 6.56436 7.32527C6.55914 7.46027 6.60506 7.59226 6.69294 7.69487L9.31057 10.3447L6.74658 12.8765C6.69043 12.9246 6.64482 12.9838 6.61262 13.0503C6.58043 13.1168 6.56234 13.1893 6.55948 13.2632C6.55663 13.3371 6.56908 13.4107 6.59604 13.4796C6.62301 13.5484 6.66392 13.6109 6.71619 13.6632C6.76846 13.7155 6.83098 13.7564 6.89981 13.7833C6.96865 13.8103 7.04231 13.8228 7.11618 13.8199C7.19006 13.8171 7.26254 13.799 7.32909 13.7668C7.39564 13.7346 7.45481 13.689 7.5029 13.6328L10.0615 11.0742L12.6041 13.6167C12.7067 13.7046 12.8387 13.7505 12.9737 13.7453C13.1087 13.7401 13.2367 13.6841 13.3323 13.5886C13.4278 13.4931 13.4837 13.365 13.489 13.23C13.4942 13.095 13.4483 12.963 13.3604 12.8604L10.8286 10.3447Z" fill="#757575"/>
<path d="M9.96667 18.9272C8.26923 18.9272 6.60992 18.4239 5.19855 17.4808C3.78718 16.5378 2.68716 15.1974 2.03758 13.6292C1.388 12.061 1.21804 10.3353 1.54919 8.6705C1.88034 7.00568 2.69774 5.47645 3.898 4.27618C5.09827 3.07591 6.62751 2.25852 8.29233 1.92736C9.95715 1.59621 11.6828 1.76617 13.251 2.41575C14.8192 3.06533 16.1596 4.16536 17.1027 5.57672C18.0457 6.98809 18.5491 8.64741 18.5491 10.3448C18.5491 12.621 17.6448 14.804 16.0353 16.4135C14.4258 18.023 12.2429 18.9272 9.96667 18.9272ZM9.96667 2.83525C8.48141 2.83525 7.02951 3.27568 5.79456 4.10085C4.55962 4.92601 3.5971 6.09885 3.02871 7.47105C2.46033 8.84325 2.31162 10.3532 2.60137 11.8099C2.89113 13.2666 3.60635 14.6047 4.65659 15.6549C5.70682 16.7052 7.0449 17.4204 8.50162 17.7101C9.95834 17.9999 11.4683 17.8512 12.8405 17.2828C14.2127 16.7144 15.3855 15.7519 16.2107 14.5169C17.0358 13.282 17.4763 11.8301 17.4763 10.3448C17.4763 8.35318 16.6851 6.44308 15.2767 5.03476C13.8684 3.62644 11.9583 2.83525 9.96667 2.83525Z" fill="#757575"/>
</g>
<defs>
<clipPath id="clip0_34_1704">
<rect width="19.3104" height="19.3104" fill="white" transform="translate(0.310547 0.689697)"/>
</clipPath>
</defs>
</svg>
