<svg width="823" height="374" viewBox="0 0 823 374" fill="none" xmlns="http://www.w3.org/2000/svg">
<path d="M216.892 44V0.227998H226.626V44H216.892ZM224.394 44V35.444H246.032V44H224.394ZM251.646 44V0.227998H261.38V44H251.646ZM259.086 44V35.568H283.08V44H259.086ZM259.086 25.71V17.588H280.91V25.71H259.086ZM259.086 8.598V0.227998H282.77V8.598H259.086ZM289.791 44V0.227998H299.525V44H289.791ZM297.231 26.826V18.456H319.117V26.826H297.231ZM297.231 8.598V0.227998H320.109V8.598H297.231ZM335.694 44V0.847998H345.428V44H335.694ZM321.992 8.722V0.227998H359.13V8.722H321.992ZM396.968 44V0.847998H406.702V44H396.968ZM383.266 8.722V0.227998H420.404V8.722H383.266ZM425.84 44V0.227998H435.574V44H425.84ZM444.004 44V0.227998H450.948L468.184 27.074H464.65L481.824 0.227998H488.83V44H479.096V16.658L480.832 17.092L469.61 34.576H463.162L452.002 17.092L453.676 16.658V44H444.004ZM497.224 44V0.227998H506.958V44H497.224ZM504.664 44V35.568H528.658V44H504.664ZM504.664 25.71V17.588H526.488V25.71H504.664ZM504.664 8.598V0.227998H528.348V8.598H504.664ZM552.259 44.682C550.647 44.682 549.304 44.124 548.229 43.008C547.155 41.892 546.617 40.5487 546.617 38.978C546.617 37.3247 547.155 35.9607 548.229 34.886C549.304 33.77 550.647 33.212 552.259 33.212C553.913 33.212 555.256 33.77 556.289 34.886C557.364 35.9607 557.901 37.3247 557.901 38.978C557.901 40.5487 557.364 41.892 556.289 43.008C555.256 44.124 553.913 44.682 552.259 44.682ZM582.654 44.682C581.042 44.682 579.699 44.124 578.624 43.008C577.549 41.892 577.012 40.5487 577.012 38.978C577.012 37.3247 577.549 35.9607 578.624 34.886C579.699 33.77 581.042 33.212 582.654 33.212C584.307 33.212 585.651 33.77 586.684 34.886C587.759 35.9607 588.296 37.3247 588.296 38.978C588.296 40.5487 587.759 41.892 586.684 43.008C585.651 44.124 584.307 44.682 582.654 44.682ZM613.049 44.682C611.437 44.682 610.093 44.124 609.019 43.008C607.944 41.892 607.407 40.5487 607.407 38.978C607.407 37.3247 607.944 35.9607 609.019 34.886C610.093 33.77 611.437 33.212 613.049 33.212C614.702 33.212 616.045 33.77 617.079 34.886C618.153 35.9607 618.691 37.3247 618.691 38.978C618.691 40.5487 618.153 41.892 617.079 43.008C616.045 44.124 614.702 44.682 613.049 44.682Z" fill="white"/>
<path d="M193.505 227.682C191.893 227.682 190.55 227.124 189.475 226.008C188.4 224.892 187.863 223.549 187.863 221.978C187.863 220.325 188.4 218.961 189.475 217.886C190.55 216.77 191.893 216.212 193.505 216.212C195.158 216.212 196.502 216.77 197.535 217.886C198.61 218.961 199.147 220.325 199.147 221.978C199.147 223.549 198.61 224.892 197.535 226.008C196.502 227.124 195.158 227.682 193.505 227.682ZM193.505 209.33C191.893 209.33 190.55 208.772 189.475 207.656C188.4 206.54 187.863 205.197 187.863 203.626C187.863 201.973 188.4 200.609 189.475 199.534C190.55 198.418 191.893 197.86 193.505 197.86C195.158 197.86 196.502 198.418 197.535 199.534C198.61 200.609 199.147 201.973 199.147 203.626C199.147 205.197 198.61 206.54 197.535 207.656C196.502 208.772 195.158 209.33 193.505 209.33Z" fill="white"/>
<path d="M641.505 227.682C639.893 227.682 638.55 227.124 637.475 226.008C636.4 224.892 635.863 223.549 635.863 221.978C635.863 220.325 636.4 218.961 637.475 217.886C638.55 216.77 639.893 216.212 641.505 216.212C643.158 216.212 644.502 216.77 645.535 217.886C646.61 218.961 647.147 220.325 647.147 221.978C647.147 223.549 646.61 224.892 645.535 226.008C644.502 227.124 643.158 227.682 641.505 227.682ZM641.505 209.33C639.893 209.33 638.55 208.772 637.475 207.656C636.4 206.54 635.863 205.197 635.863 203.626C635.863 201.973 636.4 200.609 637.475 199.534C638.55 198.418 639.893 197.86 641.505 197.86C643.158 197.86 644.502 198.418 645.535 199.534C646.61 200.609 647.147 201.973 647.147 203.626C647.147 205.197 646.61 206.54 645.535 207.656C644.502 208.772 643.158 209.33 641.505 209.33Z" fill="white"/>
<path d="M193.505 227.682C191.893 227.682 190.55 227.124 189.475 226.008C188.4 224.892 187.863 223.549 187.863 221.978C187.863 220.325 188.4 218.961 189.475 217.886C190.55 216.77 191.893 216.212 193.505 216.212C195.158 216.212 196.502 216.77 197.535 217.886C198.61 218.961 199.147 220.325 199.147 221.978C199.147 223.549 198.61 224.892 197.535 226.008C196.502 227.124 195.158 227.682 193.505 227.682ZM193.505 209.33C191.893 209.33 190.55 208.772 189.475 207.656C188.4 206.54 187.863 205.197 187.863 203.626C187.863 201.973 188.4 200.609 189.475 199.534C190.55 198.418 191.893 197.86 193.505 197.86C195.158 197.86 196.502 198.418 197.535 199.534C198.61 200.609 199.147 201.973 199.147 203.626C199.147 205.197 198.61 206.54 197.535 207.656C196.502 208.772 195.158 209.33 193.505 209.33Z" fill="white"/>
<path d="M35.2063 365V360.8H42.5663C44.4863 360.8 46.1663 360.387 47.6063 359.56C49.073 358.733 50.2063 357.587 51.0063 356.12C51.833 354.627 52.2463 352.907 52.2463 350.96C52.2463 349.04 51.833 347.347 51.0063 345.88C50.1797 344.413 49.033 343.267 47.5663 342.44C46.1263 341.613 44.4597 341.2 42.5663 341.2H35.2063V337H42.6863C44.713 337 46.593 337.36 48.3263 338.08C50.0597 338.773 51.5663 339.76 52.8463 341.04C54.153 342.293 55.1663 343.773 55.8863 345.48C56.6063 347.16 56.9664 349 56.9664 351C56.9664 352.973 56.6063 354.813 55.8863 356.52C55.1663 358.227 54.1663 359.72 52.8863 361C51.6063 362.253 50.0997 363.24 48.3663 363.96C46.633 364.653 44.7663 365 42.7663 365H35.2063ZM32.0463 365V337H36.6463V365H32.0463ZM69.0957 365.4C67.3624 365.4 65.7891 364.96 64.3757 364.08C62.9891 363.2 61.8824 362.013 61.0557 360.52C60.2557 359 59.8557 357.307 59.8557 355.44C59.8557 353.547 60.2557 351.853 61.0557 350.36C61.8824 348.84 62.9891 347.64 64.3757 346.76C65.7891 345.853 67.3624 345.4 69.0957 345.4C70.5624 345.4 71.8557 345.72 72.9757 346.36C74.1224 346.973 75.0291 347.827 75.6957 348.92C76.3624 350.013 76.6957 351.253 76.6957 352.64V358.16C76.6957 359.547 76.3624 360.787 75.6957 361.88C75.0557 362.973 74.1624 363.84 73.0157 364.48C71.8691 365.093 70.5624 365.4 69.0957 365.4ZM69.8157 361.24C71.4424 361.24 72.7491 360.693 73.7357 359.6C74.7491 358.507 75.2557 357.107 75.2557 355.4C75.2557 354.253 75.0291 353.24 74.5757 352.36C74.1224 351.48 73.4824 350.8 72.6557 350.32C71.8557 349.813 70.9091 349.56 69.8157 349.56C68.7491 349.56 67.8024 349.813 66.9757 350.32C66.1757 350.8 65.5357 351.48 65.0557 352.36C64.6024 353.24 64.3757 354.253 64.3757 355.4C64.3757 356.547 64.6024 357.56 65.0557 358.44C65.5357 359.32 66.1757 360.013 66.9757 360.52C67.8024 361 68.7491 361.24 69.8157 361.24ZM74.9757 365V359.84L75.7357 355.16L74.9757 350.52V345.8H79.3757V365H74.9757ZM90.4588 365.2L82.2588 345.8H87.0988L92.6988 360.04H91.2988L97.2188 345.8H102.099L93.1788 365.2H90.4588ZM84.7388 373L90.6988 360.72L93.1788 365.2L89.6188 373H84.7388ZM110.539 365.4C109.472 365.4 108.446 365.267 107.459 365C106.472 364.707 105.566 364.307 104.739 363.8C103.912 363.267 103.192 362.627 102.579 361.88L105.379 359.08C106.046 359.853 106.806 360.44 107.659 360.84C108.539 361.213 109.526 361.4 110.619 361.4C111.606 361.4 112.352 361.253 112.859 360.96C113.366 360.667 113.619 360.24 113.619 359.68C113.619 359.093 113.379 358.64 112.899 358.32C112.419 358 111.792 357.733 111.019 357.52C110.272 357.28 109.472 357.04 108.619 356.8C107.792 356.56 106.992 356.24 106.219 355.84C105.472 355.413 104.859 354.84 104.379 354.12C103.899 353.4 103.659 352.467 103.659 351.32C103.659 350.093 103.939 349.04 104.499 348.16C105.086 347.28 105.899 346.6 106.939 346.12C108.006 345.64 109.272 345.4 110.739 345.4C112.286 345.4 113.646 345.68 114.819 346.24C116.019 346.773 117.019 347.587 117.819 348.68L115.019 351.48C114.459 350.787 113.819 350.267 113.099 349.92C112.379 349.573 111.552 349.4 110.619 349.4C109.739 349.4 109.059 349.533 108.579 349.8C108.099 350.067 107.859 350.453 107.859 350.96C107.859 351.493 108.099 351.907 108.579 352.2C109.059 352.493 109.672 352.747 110.419 352.96C111.192 353.173 111.992 353.413 112.819 353.68C113.672 353.92 114.472 354.267 115.219 354.72C115.992 355.147 116.619 355.733 117.099 356.48C117.579 357.2 117.819 358.147 117.819 359.32C117.819 361.187 117.166 362.667 115.859 363.76C114.552 364.853 112.779 365.4 110.539 365.4Z" fill="white"/>
<path d="M257.683 367V339H262.283V367H257.683ZM275.483 367V339H280.083V367H275.483ZM260.843 354.6V350.4H276.483V354.6H260.843ZM294.36 367.4C292.493 367.4 290.8 366.96 289.28 366.08C287.76 365.173 286.546 363.96 285.64 362.44C284.76 360.92 284.32 359.227 284.32 357.36C284.32 355.493 284.76 353.813 285.64 352.32C286.546 350.827 287.76 349.64 289.28 348.76C290.8 347.853 292.493 347.4 294.36 347.4C296.253 347.4 297.96 347.84 299.48 348.72C301 349.6 302.2 350.8 303.08 352.32C303.986 353.813 304.44 355.493 304.44 357.36C304.44 359.227 303.986 360.92 303.08 362.44C302.2 363.96 301 365.173 299.48 366.08C297.96 366.96 296.253 367.4 294.36 367.4ZM294.36 363.16C295.453 363.16 296.413 362.92 297.24 362.44C298.093 361.933 298.746 361.24 299.2 360.36C299.68 359.48 299.92 358.48 299.92 357.36C299.92 356.24 299.68 355.253 299.2 354.4C298.72 353.547 298.066 352.88 297.24 352.4C296.413 351.893 295.453 351.64 294.36 351.64C293.293 351.64 292.333 351.893 291.48 352.4C290.653 352.88 290 353.547 289.52 354.4C289.066 355.253 288.84 356.24 288.84 357.36C288.84 358.48 289.066 359.48 289.52 360.36C290 361.24 290.653 361.933 291.48 362.44C292.333 362.92 293.293 363.16 294.36 363.16ZM315.979 367.4C314.352 367.4 312.899 367.04 311.619 366.32C310.365 365.6 309.379 364.613 308.659 363.36C307.965 362.08 307.619 360.613 307.619 358.96V347.8H312.019V358.76C312.019 359.693 312.165 360.493 312.459 361.16C312.779 361.8 313.232 362.293 313.819 362.64C314.432 362.987 315.152 363.16 315.979 363.16C317.259 363.16 318.232 362.787 318.899 362.04C319.592 361.267 319.939 360.173 319.939 358.76V347.8H324.339V358.96C324.339 360.64 323.979 362.12 323.259 363.4C322.565 364.653 321.592 365.64 320.339 366.36C319.085 367.053 317.632 367.4 315.979 367.4ZM328.763 367V347.8H333.163V367H328.763ZM333.163 356.32L331.643 355.56C331.643 353.133 332.176 351.173 333.243 349.68C334.336 348.16 335.976 347.4 338.163 347.4C339.123 347.4 339.989 347.573 340.763 347.92C341.536 348.267 342.256 348.827 342.923 349.6L340.043 352.56C339.696 352.187 339.309 351.92 338.883 351.76C338.456 351.6 337.963 351.52 337.403 351.52C336.176 351.52 335.163 351.907 334.363 352.68C333.563 353.453 333.163 354.667 333.163 356.32ZM350.902 367.4C349.835 367.4 348.809 367.267 347.822 367C346.835 366.707 345.929 366.307 345.102 365.8C344.275 365.267 343.555 364.627 342.942 363.88L345.742 361.08C346.409 361.853 347.169 362.44 348.022 362.84C348.902 363.213 349.889 363.4 350.982 363.4C351.969 363.4 352.715 363.253 353.222 362.96C353.729 362.667 353.982 362.24 353.982 361.68C353.982 361.093 353.742 360.64 353.262 360.32C352.782 360 352.155 359.733 351.382 359.52C350.635 359.28 349.835 359.04 348.982 358.8C348.155 358.56 347.355 358.24 346.582 357.84C345.835 357.413 345.222 356.84 344.742 356.12C344.262 355.4 344.022 354.467 344.022 353.32C344.022 352.093 344.302 351.04 344.862 350.16C345.449 349.28 346.262 348.6 347.302 348.12C348.369 347.64 349.635 347.4 351.102 347.4C352.649 347.4 354.009 347.68 355.182 348.24C356.382 348.773 357.382 349.587 358.182 350.68L355.382 353.48C354.822 352.787 354.182 352.267 353.462 351.92C352.742 351.573 351.915 351.4 350.982 351.4C350.102 351.4 349.422 351.533 348.942 351.8C348.462 352.067 348.222 352.453 348.222 352.96C348.222 353.493 348.462 353.907 348.942 354.2C349.422 354.493 350.035 354.747 350.782 354.96C351.555 355.173 352.355 355.413 353.182 355.68C354.035 355.92 354.835 356.267 355.582 356.72C356.355 357.147 356.982 357.733 357.462 358.48C357.942 359.2 358.182 360.147 358.182 361.32C358.182 363.187 357.529 364.667 356.222 365.76C354.915 366.853 353.142 367.4 350.902 367.4Z" fill="white"/>
<rect x="2" y="140.073" width="156.009" height="146.998" rx="24" fill="white" stroke="#1976D2" stroke-width="4"/>
<path d="M66.9554 228.4C64.8487 228.4 62.9154 227.813 61.1554 226.64C59.4221 225.44 58.0354 223.76 56.9954 221.6C55.9554 219.44 55.4354 216.893 55.4354 213.96C55.4354 211.027 55.9421 208.493 56.9554 206.36C57.9954 204.2 59.3821 202.533 61.1154 201.36C62.8487 200.187 64.7687 199.6 66.8754 199.6C69.0087 199.6 70.9421 200.187 72.6754 201.36C74.4087 202.533 75.7821 204.2 76.7954 206.36C77.8354 208.493 78.3554 211.04 78.3554 214C78.3554 216.933 77.8354 219.48 76.7954 221.64C75.7821 223.8 74.4087 225.467 72.6754 226.64C70.9687 227.813 69.0621 228.4 66.9554 228.4ZM66.8754 224.08C68.2621 224.08 69.4621 223.707 70.4754 222.96C71.4887 222.213 72.2754 221.093 72.8354 219.6C73.4221 218.107 73.7154 216.227 73.7154 213.96C73.7154 211.72 73.4221 209.853 72.8354 208.36C72.2754 206.867 71.4754 205.76 70.4354 205.04C69.4221 204.293 68.2354 203.92 66.8754 203.92C65.5154 203.92 64.3154 204.293 63.2754 205.04C62.2621 205.76 61.4754 206.867 60.9154 208.36C60.3554 209.827 60.0754 211.693 60.0754 213.96C60.0754 216.227 60.3554 218.107 60.9154 219.6C61.4754 221.093 62.2621 222.213 63.2754 222.96C64.3154 223.707 65.5154 224.08 66.8754 224.08ZM93.1663 228.4C91.0597 228.4 89.1263 227.813 87.3663 226.64C85.633 225.44 84.2463 223.76 83.2063 221.6C82.1663 219.44 81.6463 216.893 81.6463 213.96C81.6463 211.027 82.153 208.493 83.1663 206.36C84.2063 204.2 85.593 202.533 87.3263 201.36C89.0597 200.187 90.9797 199.6 93.0863 199.6C95.2197 199.6 97.153 200.187 98.8863 201.36C100.62 202.533 101.993 204.2 103.006 206.36C104.046 208.493 104.566 211.04 104.566 214C104.566 216.933 104.046 219.48 103.006 221.64C101.993 223.8 100.62 225.467 98.8863 226.64C97.1797 227.813 95.273 228.4 93.1663 228.4ZM93.0863 224.08C94.473 224.08 95.673 223.707 96.6863 222.96C97.6997 222.213 98.4863 221.093 99.0463 219.6C99.633 218.107 99.9263 216.227 99.9263 213.96C99.9263 211.72 99.633 209.853 99.0463 208.36C98.4863 206.867 97.6863 205.76 96.6463 205.04C95.633 204.293 94.4463 203.92 93.0863 203.92C91.7263 203.92 90.5263 204.293 89.4863 205.04C88.473 205.76 87.6863 206.867 87.1263 208.36C86.5663 209.827 86.2863 211.693 86.2863 213.96C86.2863 216.227 86.5663 218.107 87.1263 219.6C87.6863 221.093 88.473 222.213 89.4863 222.96C90.5263 223.707 91.7263 224.08 93.0863 224.08Z" fill="#1976D2"/>
<rect x="232.006" y="140" width="156.009" height="146.998" rx="24" fill="white" stroke="#1976D2" stroke-width="4"/>
<path d="M299.952 230.4C297.845 230.4 295.912 229.813 294.152 228.64C292.418 227.44 291.032 225.76 289.992 223.6C288.952 221.44 288.432 218.893 288.432 215.96C288.432 213.027 288.938 210.493 289.952 208.36C290.992 206.2 292.378 204.533 294.112 203.36C295.845 202.187 297.765 201.6 299.872 201.6C302.005 201.6 303.938 202.187 305.672 203.36C307.405 204.533 308.778 206.2 309.792 208.36C310.832 210.493 311.352 213.04 311.352 216C311.352 218.933 310.832 221.48 309.792 223.64C308.778 225.8 307.405 227.467 305.672 228.64C303.965 229.813 302.058 230.4 299.952 230.4ZM299.872 226.08C301.258 226.08 302.458 225.707 303.472 224.96C304.485 224.213 305.272 223.093 305.832 221.6C306.418 220.107 306.712 218.227 306.712 215.96C306.712 213.72 306.418 211.853 305.832 210.36C305.272 208.867 304.472 207.76 303.432 207.04C302.418 206.293 301.232 205.92 299.872 205.92C298.512 205.92 297.312 206.293 296.272 207.04C295.258 207.76 294.472 208.867 293.912 210.36C293.352 211.827 293.072 213.693 293.072 215.96C293.072 218.227 293.352 220.107 293.912 221.6C294.472 223.093 295.258 224.213 296.272 224.96C297.312 225.707 298.512 226.08 299.872 226.08ZM319.642 230V202H324.162V230H319.642ZM314.042 206.12V202H323.762V206.12H314.042Z" fill="#1976D2"/>
<rect x="451.006" y="140" width="156.009" height="146.998" rx="24" fill="white" stroke="#1976D2" stroke-width="4"/>
<path d="M500.509 216L510.469 198H515.669L505.469 216H500.509ZM500.509 218.8V216L502.469 214.68H522.229V218.8H500.509ZM513.789 226V207.68H518.309V226H513.789ZM532.707 226.4C530.76 226.4 529.027 226.067 527.507 225.4C525.987 224.707 524.707 223.707 523.667 222.4L526.787 219.28C527.347 220.133 528.133 220.813 529.147 221.32C530.187 221.827 531.347 222.08 532.627 222.08C533.8 222.08 534.827 221.867 535.707 221.44C536.587 221.013 537.28 220.4 537.787 219.6C538.293 218.8 538.547 217.853 538.547 216.76C538.547 215.613 538.293 214.667 537.787 213.92C537.307 213.147 536.653 212.573 535.827 212.2C535.027 211.8 534.16 211.6 533.227 211.6C532.16 211.6 531.2 211.72 530.347 211.96C529.52 212.2 528.707 212.627 527.907 213.24L528.027 210.36C528.453 209.8 528.947 209.347 529.507 209C530.067 208.627 530.72 208.347 531.467 208.16C532.213 207.973 533.093 207.88 534.107 207.88C536.08 207.88 537.733 208.293 539.067 209.12C540.427 209.947 541.453 211.053 542.147 212.44C542.84 213.8 543.187 215.32 543.187 217C543.187 218.813 542.733 220.427 541.827 221.84C540.947 223.253 539.72 224.373 538.147 225.2C536.573 226 534.76 226.4 532.707 226.4ZM527.907 213.24L525.387 210.72L526.627 198H530.827L529.387 211.24L527.907 213.24ZM527.427 202.12L526.627 198H541.627V202.12H527.427Z" fill="#1976D2"/>
<rect x="664.006" y="140" width="156.009" height="146.998" rx="24" fill="white" stroke="#1976D2" stroke-width="4"/>
<path d="M736.187 227.4C734.24 227.4 732.507 227.067 730.987 226.4C729.467 225.707 728.187 224.707 727.147 223.4L730.267 220.28C730.827 221.133 731.614 221.813 732.627 222.32C733.667 222.827 734.827 223.08 736.107 223.08C737.28 223.08 738.307 222.867 739.187 222.44C740.067 222.013 740.76 221.4 741.267 220.6C741.774 219.8 742.027 218.853 742.027 217.76C742.027 216.613 741.774 215.667 741.267 214.92C740.787 214.147 740.134 213.573 739.307 213.2C738.507 212.8 737.64 212.6 736.707 212.6C735.64 212.6 734.68 212.72 733.827 212.96C733 213.2 732.187 213.627 731.387 214.24L731.507 211.36C731.934 210.8 732.427 210.347 732.987 210C733.547 209.627 734.2 209.347 734.947 209.16C735.694 208.973 736.574 208.88 737.587 208.88C739.56 208.88 741.214 209.293 742.547 210.12C743.907 210.947 744.934 212.053 745.627 213.44C746.32 214.8 746.667 216.32 746.667 218C746.667 219.813 746.214 221.427 745.307 222.84C744.427 224.253 743.2 225.373 741.627 226.2C740.054 227 738.24 227.4 736.187 227.4ZM731.387 214.24L728.867 211.72L730.107 199H734.307L732.867 212.24L731.387 214.24ZM730.907 203.12L730.107 199H745.107V203.12H730.907ZM757.944 227.4C756.077 227.4 754.384 227.067 752.864 226.4C751.371 225.707 750.104 224.707 749.064 223.4L752.184 220.28C752.744 221.133 753.531 221.813 754.544 222.32C755.557 222.827 756.664 223.08 757.864 223.08C759.011 223.08 759.997 222.867 760.824 222.44C761.651 222.013 762.291 221.413 762.744 220.64C763.224 219.867 763.464 218.973 763.464 217.96C763.464 216.893 763.224 215.987 762.744 215.24C762.291 214.493 761.624 213.92 760.744 213.52C759.891 213.093 758.851 212.88 757.624 212.88C757.144 212.88 756.651 212.92 756.144 213C755.637 213.053 755.184 213.147 754.784 213.28L756.824 210.64C757.384 210.427 757.971 210.253 758.584 210.12C759.224 209.96 759.837 209.88 760.424 209.88C761.864 209.88 763.157 210.227 764.304 210.92C765.477 211.613 766.397 212.587 767.064 213.84C767.757 215.067 768.104 216.52 768.104 218.2C768.104 220.013 767.677 221.613 766.824 223C765.971 224.387 764.784 225.467 763.264 226.24C761.744 227.013 759.971 227.4 757.944 227.4ZM754.784 213.28V210.56L762.264 201.84L767.784 201.72L759.984 210.68L754.784 213.28ZM750.464 203.12V199H767.784V201.72L763.824 203.12H750.464Z" fill="#1976D2"/>
<path d="M421.505 227.682C419.893 227.682 418.55 227.124 417.475 226.008C416.4 224.892 415.863 223.549 415.863 221.978C415.863 220.325 416.4 218.961 417.475 217.886C418.55 216.77 419.893 216.212 421.505 216.212C423.158 216.212 424.502 216.77 425.535 217.886C426.61 218.961 427.147 220.325 427.147 221.978C427.147 223.549 426.61 224.892 425.535 226.008C424.502 227.124 423.158 227.682 421.505 227.682ZM421.505 209.33C419.893 209.33 418.55 208.772 417.475 207.656C416.4 206.54 415.863 205.197 415.863 203.626C415.863 201.973 416.4 200.609 417.475 199.534C418.55 198.418 419.893 197.86 421.505 197.86C423.158 197.86 424.502 198.418 425.535 199.534C426.61 200.609 427.147 201.973 427.147 203.626C427.147 205.197 426.61 206.54 425.535 207.656C424.502 208.772 423.158 209.33 421.505 209.33Z" fill="white"/>
<path d="M462.613 371V343H465.813L477.453 362.16H475.373L487.013 343H490.213V371H485.613V351.08L486.653 351.36L478.013 365.56H474.813L466.173 351.36L467.213 351.08V371H462.613ZM495.725 371V351.8H500.125V371H495.725ZM497.925 348.28C497.178 348.28 496.551 348.027 496.045 347.52C495.565 347.013 495.325 346.387 495.325 345.64C495.325 344.893 495.565 344.267 496.045 343.76C496.551 343.253 497.178 343 497.925 343C498.698 343 499.325 343.253 499.805 343.76C500.285 344.267 500.525 344.893 500.525 345.64C500.525 346.387 500.285 347.013 499.805 347.52C499.325 348.027 498.698 348.28 497.925 348.28ZM518.22 371V359.92C518.22 358.64 517.806 357.587 516.98 356.76C516.18 355.933 515.14 355.52 513.86 355.52C513.006 355.52 512.246 355.707 511.58 356.08C510.913 356.453 510.393 356.973 510.02 357.64C509.646 358.307 509.46 359.067 509.46 359.92L507.74 358.96C507.74 357.493 508.06 356.2 508.7 355.08C509.34 353.933 510.22 353.04 511.34 352.4C512.486 351.733 513.766 351.4 515.18 351.4C516.62 351.4 517.9 351.773 519.02 352.52C520.14 353.24 521.02 354.187 521.66 355.36C522.3 356.507 522.62 357.707 522.62 358.96V371H518.22ZM505.06 371V351.8H509.46V371H505.06ZM534.971 371.4C533.344 371.4 531.891 371.04 530.611 370.32C529.358 369.6 528.371 368.613 527.651 367.36C526.958 366.08 526.611 364.613 526.611 362.96V351.8H531.011V362.76C531.011 363.693 531.158 364.493 531.451 365.16C531.771 365.8 532.224 366.293 532.811 366.64C533.424 366.987 534.144 367.16 534.971 367.16C536.251 367.16 537.224 366.787 537.891 366.04C538.584 365.267 538.931 364.173 538.931 362.76V351.8H543.331V362.96C543.331 364.64 542.971 366.12 542.251 367.4C541.558 368.653 540.584 369.64 539.331 370.36C538.078 371.053 536.624 371.4 534.971 371.4ZM550.675 371V343.8H555.075V371H550.675ZM546.075 355.8V351.8H559.675V355.8H546.075ZM571.245 371.4C569.325 371.4 567.592 370.973 566.045 370.12C564.525 369.24 563.312 368.04 562.405 366.52C561.525 365 561.085 363.293 561.085 361.4C561.085 359.507 561.525 357.813 562.405 356.32C563.285 354.8 564.472 353.6 565.965 352.72C567.485 351.84 569.165 351.4 571.005 351.4C572.792 351.4 574.365 351.813 575.725 352.64C577.112 353.467 578.192 354.6 578.965 356.04C579.765 357.48 580.165 359.12 580.165 360.96C580.165 361.28 580.139 361.613 580.085 361.96C580.059 362.28 580.005 362.64 579.925 363.04H564.165V359.44H577.645L576.005 360.88C575.952 359.707 575.725 358.72 575.325 357.92C574.925 357.12 574.352 356.507 573.605 356.08C572.885 355.653 571.992 355.44 570.925 355.44C569.805 355.44 568.832 355.68 568.005 356.16C567.179 356.64 566.539 357.32 566.085 358.2C565.632 359.053 565.405 360.08 565.405 361.28C565.405 362.48 565.645 363.533 566.125 364.44C566.605 365.347 567.285 366.053 568.165 366.56C569.045 367.04 570.059 367.28 571.205 367.28C572.192 367.28 573.099 367.107 573.925 366.76C574.779 366.413 575.499 365.907 576.085 365.24L578.885 368.08C577.952 369.173 576.819 370 575.485 370.56C574.152 371.12 572.739 371.4 571.245 371.4ZM589.972 371.4C588.906 371.4 587.879 371.267 586.892 371C585.906 370.707 584.999 370.307 584.172 369.8C583.346 369.267 582.626 368.627 582.012 367.88L584.812 365.08C585.479 365.853 586.239 366.44 587.092 366.84C587.972 367.213 588.959 367.4 590.052 367.4C591.039 367.4 591.786 367.253 592.292 366.96C592.799 366.667 593.052 366.24 593.052 365.68C593.052 365.093 592.812 364.64 592.332 364.32C591.852 364 591.226 363.733 590.452 363.52C589.706 363.28 588.906 363.04 588.052 362.8C587.226 362.56 586.426 362.24 585.652 361.84C584.906 361.413 584.292 360.84 583.812 360.12C583.332 359.4 583.092 358.467 583.092 357.32C583.092 356.093 583.372 355.04 583.932 354.16C584.519 353.28 585.332 352.6 586.372 352.12C587.439 351.64 588.706 351.4 590.172 351.4C591.719 351.4 593.079 351.68 594.252 352.24C595.452 352.773 596.452 353.587 597.252 354.68L594.452 357.48C593.892 356.787 593.252 356.267 592.532 355.92C591.812 355.573 590.986 355.4 590.052 355.4C589.172 355.4 588.492 355.533 588.012 355.8C587.532 356.067 587.292 356.453 587.292 356.96C587.292 357.493 587.532 357.907 588.012 358.2C588.492 358.493 589.106 358.747 589.852 358.96C590.626 359.173 591.426 359.413 592.252 359.68C593.106 359.92 593.906 360.267 594.652 360.72C595.426 361.147 596.052 361.733 596.532 362.48C597.012 363.2 597.252 364.147 597.252 365.32C597.252 367.187 596.599 368.667 595.292 369.76C593.986 370.853 592.212 371.4 589.972 371.4Z" fill="white"/>
<path d="M679.135 373.4C676.922 373.4 675.042 373 673.495 372.2C671.949 371.4 670.562 370.227 669.335 368.68L672.455 365.56C673.229 366.68 674.149 367.56 675.215 368.2C676.282 368.813 677.642 369.12 679.295 369.12C680.842 369.12 682.069 368.8 682.975 368.16C683.909 367.52 684.375 366.64 684.375 365.52C684.375 364.587 684.135 363.827 683.655 363.24C683.175 362.653 682.535 362.173 681.735 361.8C680.962 361.4 680.095 361.053 679.135 360.76C678.202 360.44 677.255 360.093 676.295 359.72C675.362 359.32 674.495 358.827 673.695 358.24C672.922 357.653 672.295 356.893 671.815 355.96C671.335 355.027 671.095 353.84 671.095 352.4C671.095 350.747 671.495 349.347 672.295 348.2C673.122 347.027 674.229 346.133 675.615 345.52C677.002 344.907 678.549 344.6 680.255 344.6C682.095 344.6 683.735 344.96 685.175 345.68C686.642 346.4 687.829 347.32 688.735 348.44L685.615 351.56C684.815 350.653 683.975 349.987 683.095 349.56C682.242 349.107 681.255 348.88 680.135 348.88C678.749 348.88 677.655 349.16 676.855 349.72C676.082 350.28 675.695 351.067 675.695 352.08C675.695 352.933 675.935 353.627 676.415 354.16C676.895 354.667 677.522 355.107 678.295 355.48C679.095 355.827 679.962 356.16 680.895 356.48C681.855 356.8 682.802 357.16 683.735 357.56C684.695 357.96 685.562 358.48 686.335 359.12C687.135 359.733 687.775 360.533 688.255 361.52C688.735 362.507 688.975 363.747 688.975 365.24C688.975 367.747 688.082 369.733 686.295 371.2C684.535 372.667 682.149 373.4 679.135 373.4ZM701.648 373.4C699.728 373.4 697.994 372.973 696.448 372.12C694.928 371.24 693.714 370.04 692.808 368.52C691.928 367 691.488 365.293 691.488 363.4C691.488 361.507 691.928 359.813 692.808 358.32C693.688 356.8 694.874 355.6 696.368 354.72C697.888 353.84 699.568 353.4 701.408 353.4C703.194 353.4 704.768 353.813 706.128 354.64C707.514 355.467 708.594 356.6 709.368 358.04C710.168 359.48 710.568 361.12 710.568 362.96C710.568 363.28 710.541 363.613 710.488 363.96C710.461 364.28 710.408 364.64 710.328 365.04H694.568V361.44H708.048L706.408 362.88C706.354 361.707 706.128 360.72 705.728 359.92C705.328 359.12 704.754 358.507 704.008 358.08C703.288 357.653 702.394 357.44 701.328 357.44C700.208 357.44 699.234 357.68 698.408 358.16C697.581 358.64 696.941 359.32 696.488 360.2C696.034 361.053 695.808 362.08 695.808 363.28C695.808 364.48 696.048 365.533 696.528 366.44C697.008 367.347 697.688 368.053 698.568 368.56C699.448 369.04 700.461 369.28 701.608 369.28C702.594 369.28 703.501 369.107 704.328 368.76C705.181 368.413 705.901 367.907 706.488 367.24L709.288 370.08C708.354 371.173 707.221 372 705.888 372.56C704.554 373.12 703.141 373.4 701.648 373.4ZM722.935 373.4C721.041 373.4 719.321 372.96 717.775 372.08C716.255 371.2 715.055 370 714.175 368.48C713.295 366.96 712.855 365.267 712.855 363.4C712.855 361.507 713.295 359.813 714.175 358.32C715.055 356.8 716.255 355.6 717.775 354.72C719.321 353.84 721.041 353.4 722.935 353.4C724.428 353.4 725.815 353.693 727.095 354.28C728.401 354.84 729.508 355.653 730.415 356.72L727.535 359.64C726.975 358.973 726.295 358.48 725.495 358.16C724.721 357.813 723.868 357.64 722.935 357.64C721.841 357.64 720.868 357.893 720.015 358.4C719.188 358.88 718.535 359.547 718.055 360.4C717.601 361.253 717.375 362.253 717.375 363.4C717.375 364.52 717.601 365.52 718.055 366.4C718.535 367.253 719.188 367.933 720.015 368.44C720.868 368.92 721.841 369.16 722.935 369.16C723.868 369.16 724.721 369 725.495 368.68C726.295 368.333 726.975 367.827 727.535 367.16L730.415 370.08C729.508 371.147 728.401 371.973 727.095 372.56C725.815 373.12 724.428 373.4 722.935 373.4ZM741.996 373.4C740.13 373.4 738.436 372.96 736.916 372.08C735.396 371.173 734.183 369.96 733.276 368.44C732.396 366.92 731.956 365.227 731.956 363.36C731.956 361.493 732.396 359.813 733.276 358.32C734.183 356.827 735.396 355.64 736.916 354.76C738.436 353.853 740.13 353.4 741.996 353.4C743.89 353.4 745.596 353.84 747.116 354.72C748.636 355.6 749.836 356.8 750.716 358.32C751.623 359.813 752.076 361.493 752.076 363.36C752.076 365.227 751.623 366.92 750.716 368.44C749.836 369.96 748.636 371.173 747.116 372.08C745.596 372.96 743.89 373.4 741.996 373.4ZM741.996 369.16C743.09 369.16 744.05 368.92 744.876 368.44C745.73 367.933 746.383 367.24 746.836 366.36C747.316 365.48 747.556 364.48 747.556 363.36C747.556 362.24 747.316 361.253 746.836 360.4C746.356 359.547 745.703 358.88 744.876 358.4C744.05 357.893 743.09 357.64 741.996 357.64C740.93 357.64 739.97 357.893 739.116 358.4C738.29 358.88 737.636 359.547 737.156 360.4C736.703 361.253 736.476 362.24 736.476 363.36C736.476 364.48 736.703 365.48 737.156 366.36C737.636 367.24 738.29 367.933 739.116 368.44C739.97 368.92 740.93 369.16 741.996 369.16ZM768.895 373V361.92C768.895 360.64 768.482 359.587 767.655 358.76C766.855 357.933 765.815 357.52 764.535 357.52C763.682 357.52 762.922 357.707 762.255 358.08C761.589 358.453 761.069 358.973 760.695 359.64C760.322 360.307 760.135 361.067 760.135 361.92L758.415 360.96C758.415 359.493 758.735 358.2 759.375 357.08C760.015 355.933 760.895 355.04 762.015 354.4C763.162 353.733 764.442 353.4 765.855 353.4C767.295 353.4 768.575 353.773 769.695 354.52C770.815 355.24 771.695 356.187 772.335 357.36C772.975 358.507 773.295 359.707 773.295 360.96V373H768.895ZM755.735 373V353.8H760.135V373H755.735ZM785.807 373.4C784.073 373.4 782.5 372.96 781.087 372.08C779.7 371.2 778.593 370.013 777.767 368.52C776.967 367 776.567 365.307 776.567 363.44C776.567 361.547 776.967 359.853 777.767 358.36C778.593 356.84 779.7 355.64 781.087 354.76C782.5 353.853 784.073 353.4 785.807 353.4C787.273 353.4 788.567 353.72 789.687 354.36C790.833 354.973 791.74 355.827 792.407 356.92C793.073 358.013 793.407 359.253 793.407 360.64V366.16C793.407 367.547 793.073 368.787 792.407 369.88C791.767 370.973 790.873 371.84 789.727 372.48C788.58 373.093 787.273 373.4 785.807 373.4ZM786.527 369.24C787.62 369.24 788.567 369 789.367 368.52C790.193 368.013 790.833 367.32 791.287 366.44C791.74 365.56 791.967 364.547 791.967 363.4C791.967 362.253 791.74 361.24 791.287 360.36C790.833 359.48 790.193 358.8 789.367 358.32C788.567 357.813 787.62 357.56 786.527 357.56C785.46 357.56 784.513 357.813 783.687 358.32C782.887 358.8 782.247 359.48 781.767 360.36C781.313 361.24 781.087 362.253 781.087 363.4C781.087 364.547 781.313 365.56 781.767 366.44C782.247 367.32 782.887 368.013 783.687 368.52C784.513 369 785.46 369.24 786.527 369.24ZM796.087 373H791.687V367.84L792.447 363.16L791.687 358.52V344.2H796.087V373ZM807.25 373.4C806.183 373.4 805.156 373.267 804.17 373C803.183 372.707 802.276 372.307 801.45 371.8C800.623 371.267 799.903 370.627 799.29 369.88L802.09 367.08C802.756 367.853 803.516 368.44 804.37 368.84C805.25 369.213 806.236 369.4 807.33 369.4C808.316 369.4 809.063 369.253 809.57 368.96C810.076 368.667 810.33 368.24 810.33 367.68C810.33 367.093 810.09 366.64 809.61 366.32C809.13 366 808.503 365.733 807.73 365.52C806.983 365.28 806.183 365.04 805.33 364.8C804.503 364.56 803.703 364.24 802.93 363.84C802.183 363.413 801.57 362.84 801.09 362.12C800.61 361.4 800.37 360.467 800.37 359.32C800.37 358.093 800.65 357.04 801.21 356.16C801.796 355.28 802.61 354.6 803.65 354.12C804.716 353.64 805.983 353.4 807.45 353.4C808.996 353.4 810.356 353.68 811.53 354.24C812.73 354.773 813.73 355.587 814.53 356.68L811.73 359.48C811.17 358.787 810.53 358.267 809.81 357.92C809.09 357.573 808.263 357.4 807.33 357.4C806.45 357.4 805.77 357.533 805.29 357.8C804.81 358.067 804.57 358.453 804.57 358.96C804.57 359.493 804.81 359.907 805.29 360.2C805.77 360.493 806.383 360.747 807.13 360.96C807.903 361.173 808.703 361.413 809.53 361.68C810.383 361.92 811.183 362.267 811.93 362.72C812.703 363.147 813.33 363.733 813.81 364.48C814.29 365.2 814.53 366.147 814.53 367.32C814.53 369.187 813.876 370.667 812.57 371.76C811.263 372.853 809.49 373.4 807.25 373.4Z" fill="white"/>
</svg>
