<svg width="314" height="172" viewBox="0 0 314 172" fill="none" xmlns="http://www.w3.org/2000/svg">
<ellipse cx="304.904" cy="2.86909" rx="2.86909" ry="2.94119" transform="rotate(90 304.904 2.86909)" fill="#EA4334"/>
<ellipse cx="304.904" cy="44.4349" rx="2.86909" ry="2.94119" transform="rotate(90 304.904 44.4349)" fill="#EA4334"/>
<ellipse cx="304.904" cy="86.0003" rx="2.86909" ry="2.94119" transform="rotate(90 304.904 86.0003)" fill="#EA4334"/>
<ellipse cx="304.904" cy="127.566" rx="2.86909" ry="2.94119" transform="rotate(90 304.904 127.566)" fill="#EA4334"/>
<ellipse cx="304.904" cy="169.131" rx="2.86909" ry="2.94119" transform="rotate(90 304.904 169.131)" fill="#EA4334"/>
<ellipse cx="261.766" cy="2.86909" rx="2.86909" ry="2.94119" transform="rotate(90 261.766 2.86909)" fill="#EA4334"/>
<ellipse cx="261.766" cy="44.4349" rx="2.86909" ry="2.94119" transform="rotate(90 261.766 44.4349)" fill="#EA4334"/>
<ellipse cx="261.766" cy="86.0003" rx="2.86909" ry="2.94119" transform="rotate(90 261.766 86.0003)" fill="#EA4334"/>
<ellipse cx="261.766" cy="127.566" rx="2.86909" ry="2.94119" transform="rotate(90 261.766 127.566)" fill="#EA4334"/>
<ellipse cx="261.766" cy="169.131" rx="2.86909" ry="2.94119" transform="rotate(90 261.766 169.131)" fill="#EA4334"/>
<ellipse cx="218.629" cy="2.86909" rx="2.86909" ry="2.94119" transform="rotate(90 218.629 2.86909)" fill="#EA4334"/>
<ellipse cx="218.629" cy="44.4349" rx="2.86909" ry="2.94119" transform="rotate(90 218.629 44.4349)" fill="#EA4334"/>
<ellipse cx="218.629" cy="86.0003" rx="2.86909" ry="2.94119" transform="rotate(90 218.629 86.0003)" fill="#EA4334"/>
<ellipse cx="218.629" cy="127.566" rx="2.86909" ry="2.94119" transform="rotate(90 218.629 127.566)" fill="#EA4334"/>
<ellipse cx="218.629" cy="169.131" rx="2.86909" ry="2.94119" transform="rotate(90 218.629 169.131)" fill="#EA4334"/>
<ellipse cx="175.491" cy="2.86909" rx="2.86909" ry="2.94119" transform="rotate(90 175.491 2.86909)" fill="#EA4334"/>
<ellipse cx="175.491" cy="44.4349" rx="2.86909" ry="2.94119" transform="rotate(90 175.491 44.4349)" fill="#EA4334"/>
<ellipse cx="175.491" cy="86.0003" rx="2.86909" ry="2.94119" transform="rotate(90 175.491 86.0003)" fill="#EA4334"/>
<ellipse cx="175.491" cy="127.566" rx="2.86909" ry="2.94119" transform="rotate(90 175.491 127.566)" fill="#EA4334"/>
<ellipse cx="175.491" cy="169.131" rx="2.86909" ry="2.94119" transform="rotate(90 175.491 169.131)" fill="#EA4334"/>
<ellipse cx="132.354" cy="2.86909" rx="2.86909" ry="2.94119" transform="rotate(90 132.354 2.86909)" fill="#EA4334"/>
<ellipse cx="132.354" cy="44.4349" rx="2.86909" ry="2.94119" transform="rotate(90 132.354 44.4349)" fill="#EA4334"/>
<ellipse cx="132.354" cy="86.0003" rx="2.86909" ry="2.94119" transform="rotate(90 132.354 86.0003)" fill="#EA4334"/>
<ellipse cx="132.354" cy="127.566" rx="2.86909" ry="2.94119" transform="rotate(90 132.354 127.566)" fill="#EA4334"/>
<ellipse cx="132.354" cy="169.131" rx="2.86909" ry="2.94119" transform="rotate(90 132.354 169.131)" fill="#EA4334"/>
<ellipse cx="89.216" cy="2.86909" rx="2.86909" ry="2.94119" transform="rotate(90 89.216 2.86909)" fill="#EA4334"/>
<ellipse cx="89.216" cy="44.4349" rx="2.86909" ry="2.94119" transform="rotate(90 89.216 44.4349)" fill="#EA4334"/>
<ellipse cx="89.216" cy="86.0003" rx="2.86909" ry="2.94119" transform="rotate(90 89.216 86.0003)" fill="#EA4334"/>
<ellipse cx="89.216" cy="127.566" rx="2.86909" ry="2.94119" transform="rotate(90 89.216 127.566)" fill="#EA4334"/>
<ellipse cx="89.216" cy="169.131" rx="2.86909" ry="2.94119" transform="rotate(90 89.216 169.131)" fill="#EA4334"/>
<ellipse cx="46.0786" cy="2.86909" rx="2.86909" ry="2.94119" transform="rotate(90 46.0786 2.86909)" fill="#EA4334"/>
<ellipse cx="46.0786" cy="44.4349" rx="2.86909" ry="2.94119" transform="rotate(90 46.0786 44.4349)" fill="#EA4334"/>
<ellipse cx="46.0788" cy="86.0003" rx="2.86909" ry="2.94119" transform="rotate(90 46.0788 86.0003)" fill="#EA4334"/>
<ellipse cx="46.0786" cy="127.566" rx="2.86909" ry="2.94119" transform="rotate(90 46.0786 127.566)" fill="#EA4334"/>
<ellipse cx="46.0786" cy="169.131" rx="2.86909" ry="2.94119" transform="rotate(90 46.0786 169.131)" fill="#EA4334"/>
<ellipse cx="2.94119" cy="2.86909" rx="2.86909" ry="2.94119" transform="rotate(90 2.94119 2.86909)" fill="#EA4334"/>
<ellipse cx="2.94119" cy="44.4349" rx="2.86909" ry="2.94119" transform="rotate(90 2.94119 44.4349)" fill="#EA4334"/>
<ellipse cx="2.94119" cy="86.0003" rx="2.86909" ry="2.94119" transform="rotate(90 2.94119 86.0003)" fill="#EA4334"/>
<ellipse cx="2.94119" cy="127.566" rx="2.86909" ry="2.94119" transform="rotate(90 2.94119 127.566)" fill="#EA4334"/>
<ellipse cx="2.94119" cy="169.131" rx="2.86909" ry="2.94119" transform="rotate(90 2.94119 169.131)" fill="#EA4334"/>
</svg>
