<svg width="16" height="16" viewBox="0 0 16 16" fill="none" xmlns="http://www.w3.org/2000/svg">
<path d="M2.8594 12.181C2.89711 12.181 2.93483 12.1773 2.97254 12.1716L6.14442 11.6153C6.18214 11.6078 6.21797 11.5908 6.24437 11.5625L14.2382 3.56869C14.2557 3.55125 14.2695 3.53052 14.279 3.50771C14.2885 3.4849 14.2933 3.46044 14.2933 3.43575C14.2933 3.41105 14.2885 3.38659 14.279 3.36378C14.2695 3.34097 14.2557 3.32024 14.2382 3.3028L11.104 0.166748C11.0682 0.130918 11.021 0.112061 10.9701 0.112061C10.9192 0.112061 10.8721 0.130918 10.8362 0.166748L2.84242 8.16056C2.81414 8.18885 2.79717 8.22279 2.78962 8.26051L2.23332 11.4324C2.21497 11.5334 2.22153 11.6374 2.25241 11.7353C2.2833 11.8332 2.33759 11.9221 2.41058 11.9944C2.53504 12.115 2.69156 12.181 2.8594 12.181ZM4.13041 8.89225L10.9701 2.05441L12.3524 3.43669L5.51269 10.2745L3.83623 10.5706L4.13041 8.89225ZM14.5946 13.7651H0.715266C0.381483 13.7651 0.111816 14.0348 0.111816 14.3685V15.0474C0.111816 15.1304 0.179704 15.1983 0.262679 15.1983H15.0472C15.1302 15.1983 15.198 15.1304 15.198 15.0474V14.3685C15.198 14.0348 14.9284 13.7651 14.5946 13.7651Z" fill="#757575"/>
</svg>
