<svg width="44" height="40" viewBox="0 0 44 40" fill="none" xmlns="http://www.w3.org/2000/svg">
<g clip-path="url(#clip0_34_1611)">
<path d="M25.3908 0.924438H1.0964C0.490853 0.924438 0 1.38085 0 1.94389V18.6853C0 19.2483 0.490853 19.7047 1.0964 19.7047H24.9449L22.0586 18.0384C21.8698 17.9293 21.6989 17.8038 21.5454 17.6659H2.19271V2.96327H24.2945V12.862C24.6314 12.9281 24.9618 13.0487 25.2712 13.2274L26.4872 13.9294V1.94389C26.4872 1.38085 25.9964 0.924438 25.3908 0.924438Z" fill="white"/>
<path d="M18.2206 10.4951C17.8549 10.2271 17.3245 10.2853 17.0361 10.6254C16.7477 10.9655 16.8104 11.4586 17.1762 11.7267L20.8966 14.4544C20.9496 14.3473 21.0092 14.242 21.0778 14.1392C21.32 13.7765 21.6364 13.4829 21.997 13.2638L18.2206 10.4951Z" fill="white"/>
<path d="M35.2647 9.29395C37.0075 9.29395 38.4203 7.98029 38.4203 6.35981C38.4203 4.73932 37.0075 3.42566 35.2647 3.42566C33.5219 3.42566 32.1091 4.73932 32.1091 6.35981C32.1091 7.98029 33.5219 9.29395 35.2647 9.29395Z" fill="white"/>
<path d="M42.9626 13.5632C42.9527 11.7251 41.3364 10.2296 39.3595 10.2296H37.8314C36.3333 13.8423 36.8796 12.525 35.9404 14.7898L36.336 12.9363C36.3651 12.8001 36.3417 12.6586 36.2697 12.5369L35.6495 11.4881L36.1999 10.5573C36.2381 10.4928 36.2367 10.4145 36.1965 10.3511C36.1562 10.2877 36.0829 10.2489 36.0038 10.2489H34.4948C34.4156 10.2489 34.3425 10.2877 34.3021 10.3511C34.2618 10.4145 34.2605 10.4929 34.2987 10.5573L34.8479 11.4862L34.2289 12.5331C34.1556 12.6572 34.1326 12.8017 34.1643 12.9402L34.6212 14.7898C34.3591 14.158 32.85 10.6704 32.6672 10.2296H31.1691C29.1922 10.2296 27.5759 11.725 27.566 13.5632C27.5577 15.0917 27.5646 13.8116 27.5517 16.2104L24.4679 14.4302C23.7537 14.0177 22.8149 14.2218 22.3713 14.8861C21.9278 15.5504 22.1473 16.4232 22.8617 16.8356L28.2575 19.9507C29.2681 20.5343 30.5772 19.8596 30.5832 18.7551C30.5862 18.2011 30.6077 14.2388 30.6112 13.5774C30.6123 13.4139 30.7552 13.2824 30.9309 13.2829C31.1065 13.2834 31.2485 13.4159 31.2485 13.5793C31.2469 20.4014 31.2154 22.3086 31.2154 37.3767C31.2154 38.315 32.0334 39.0756 33.0425 39.0756C34.0516 39.0756 34.8696 38.315 34.8696 37.3767V23.7972H35.6584V37.3767C35.6584 38.315 36.4764 39.0756 37.4855 39.0756C38.4946 39.0756 39.3127 38.315 39.3127 37.3767L39.3133 13.5788C39.3133 13.4241 39.4481 13.2984 39.6146 13.298C39.7811 13.2975 39.9167 13.4225 39.9175 13.5774L39.9737 23.9784C39.9779 24.7578 40.6588 25.387 41.4961 25.387C41.4987 25.387 41.5013 25.387 41.504 25.387C42.3448 25.3831 43.0232 24.746 43.0189 23.9642L42.9626 13.5632Z" fill="white"/>
</g>
<defs>
<clipPath id="clip0_34_1611">
<rect width="43.0189" height="40" fill="white"/>
</clipPath>
</defs>
</svg>
