<svg width="41" height="40" viewBox="0 0 41 40" fill="none" xmlns="http://www.w3.org/2000/svg">
<path d="M11.0299 23.394C10.8173 24.7471 11.768 25.6862 12.9321 26.1542C17.3948 27.9486 23.6052 27.9486 28.0679 26.1542C29.232 25.6862 30.1827 24.7471 29.9701 23.394C29.8394 22.5625 29.1932 21.8701 28.7144 21.194C28.0873 20.2975 28.025 19.3197 28.0249 18.2794C28.0249 14.2591 24.6559 11 20.5 11C16.3441 11 12.9751 14.2591 12.9751 18.2794C12.975 19.3197 12.9127 20.2975 12.2856 21.194C11.8068 21.8701 11.1606 22.5625 11.0299 23.394Z" stroke="black" stroke-linecap="round" stroke-linejoin="round"/>
<path d="M17.5 30C18.2961 30.6219 19.3475 31 20.5 31C21.6525 31 22.7039 30.6219 23.5 30" stroke="black" stroke-linecap="round" stroke-linejoin="round"/>
<circle cx="27.5" cy="11" r="4.5" fill="#534FEB" stroke="white"/>
</svg>
