<svg width="379" height="195" viewBox="0 0 379 195" fill="none" xmlns="http://www.w3.org/2000/svg">
<ellipse cx="376.172" cy="3.092" rx="3.09139" ry="2.82836" transform="rotate(90 376.172 3.092)" fill="#EA4334" fill-opacity="0.68"/>
<ellipse cx="376.172" cy="50.2191" rx="3.09139" ry="2.82836" transform="rotate(90 376.172 50.2191)" fill="#EA4334" fill-opacity="0.68"/>
<ellipse cx="376.172" cy="97.3461" rx="3.09139" ry="2.82836" transform="rotate(90 376.172 97.3461)" fill="#EA4334" fill-opacity="0.68"/>
<ellipse cx="376.172" cy="144.473" rx="3.09139" ry="2.82836" transform="rotate(90 376.172 144.473)" fill="#EA4334" fill-opacity="0.68"/>
<ellipse cx="376.172" cy="191.6" rx="3.09139" ry="2.82836" transform="rotate(90 376.172 191.6)" fill="#EA4334" fill-opacity="0.68"/>
<ellipse cx="334.689" cy="3.09139" rx="3.09139" ry="2.82836" transform="rotate(90 334.689 3.09139)" fill="#EA4334" fill-opacity="0.68"/>
<ellipse cx="334.689" cy="50.2191" rx="3.09139" ry="2.82836" transform="rotate(90 334.689 50.2191)" fill="#EA4334" fill-opacity="0.68"/>
<ellipse cx="334.689" cy="97.3461" rx="3.09139" ry="2.82836" transform="rotate(90 334.689 97.3461)" fill="#EA4334" fill-opacity="0.68"/>
<ellipse cx="334.689" cy="144.473" rx="3.09139" ry="2.82836" transform="rotate(90 334.689 144.473)" fill="#EA4334" fill-opacity="0.68"/>
<ellipse cx="334.689" cy="191.6" rx="3.09139" ry="2.82836" transform="rotate(90 334.689 191.6)" fill="#EA4334" fill-opacity="0.68"/>
<ellipse cx="293.206" cy="3.09139" rx="3.09139" ry="2.82836" transform="rotate(90 293.206 3.09139)" fill="#EA4334" fill-opacity="0.68"/>
<ellipse cx="293.206" cy="50.2191" rx="3.09139" ry="2.82836" transform="rotate(90 293.206 50.2191)" fill="#EA4334" fill-opacity="0.68"/>
<ellipse cx="293.206" cy="97.3461" rx="3.09139" ry="2.82836" transform="rotate(90 293.206 97.3461)" fill="#EA4334" fill-opacity="0.68"/>
<ellipse cx="293.206" cy="144.473" rx="3.09139" ry="2.82836" transform="rotate(90 293.206 144.473)" fill="#EA4334" fill-opacity="0.68"/>
<ellipse cx="293.206" cy="191.6" rx="3.09139" ry="2.82836" transform="rotate(90 293.206 191.6)" fill="#EA4334" fill-opacity="0.68"/>
<ellipse cx="251.724" cy="3.09139" rx="3.09139" ry="2.82836" transform="rotate(90 251.724 3.09139)" fill="#EA4334" fill-opacity="0.68"/>
<ellipse cx="251.724" cy="50.2191" rx="3.09139" ry="2.82836" transform="rotate(90 251.724 50.2191)" fill="#EA4334" fill-opacity="0.68"/>
<ellipse cx="251.724" cy="97.3461" rx="3.09139" ry="2.82836" transform="rotate(90 251.724 97.3461)" fill="#EA4334" fill-opacity="0.68"/>
<ellipse cx="251.724" cy="144.473" rx="3.09139" ry="2.82836" transform="rotate(90 251.724 144.473)" fill="#EA4334" fill-opacity="0.68"/>
<ellipse cx="251.724" cy="191.6" rx="3.09139" ry="2.82836" transform="rotate(90 251.724 191.6)" fill="#EA4334" fill-opacity="0.68"/>
<ellipse cx="210.241" cy="3.09139" rx="3.09139" ry="2.82836" transform="rotate(90 210.241 3.09139)" fill="#EA4334" fill-opacity="0.68"/>
<ellipse cx="210.241" cy="50.2191" rx="3.09139" ry="2.82836" transform="rotate(90 210.241 50.2191)" fill="#EA4334" fill-opacity="0.68"/>
<ellipse cx="210.241" cy="97.3461" rx="3.09139" ry="2.82836" transform="rotate(90 210.241 97.3461)" fill="#EA4334" fill-opacity="0.68"/>
<ellipse cx="210.241" cy="144.473" rx="3.09139" ry="2.82836" transform="rotate(90 210.241 144.473)" fill="#EA4334" fill-opacity="0.68"/>
<ellipse cx="210.241" cy="191.6" rx="3.09139" ry="2.82836" transform="rotate(90 210.241 191.6)" fill="#EA4334" fill-opacity="0.68"/>
<ellipse cx="168.759" cy="3.09139" rx="3.09139" ry="2.82836" transform="rotate(90 168.759 3.09139)" fill="#EA4334" fill-opacity="0.68"/>
<ellipse cx="168.759" cy="50.2191" rx="3.09139" ry="2.82836" transform="rotate(90 168.759 50.2191)" fill="#EA4334" fill-opacity="0.68"/>
<ellipse cx="168.759" cy="97.3461" rx="3.09139" ry="2.82836" transform="rotate(90 168.759 97.3461)" fill="#EA4334" fill-opacity="0.68"/>
<ellipse cx="168.759" cy="144.473" rx="3.09139" ry="2.82836" transform="rotate(90 168.759 144.473)" fill="#EA4334" fill-opacity="0.68"/>
<ellipse cx="168.759" cy="191.6" rx="3.09139" ry="2.82836" transform="rotate(90 168.759 191.6)" fill="#EA4334" fill-opacity="0.68"/>
<ellipse cx="127.276" cy="3.09139" rx="3.09139" ry="2.82836" transform="rotate(90 127.276 3.09139)" fill="#EA4334" fill-opacity="0.68"/>
<ellipse cx="127.276" cy="50.2191" rx="3.09139" ry="2.82836" transform="rotate(90 127.276 50.2191)" fill="#EA4334" fill-opacity="0.68"/>
<ellipse cx="127.276" cy="97.3461" rx="3.09139" ry="2.82836" transform="rotate(90 127.276 97.3461)" fill="#EA4334" fill-opacity="0.68"/>
<ellipse cx="127.276" cy="144.473" rx="3.09139" ry="2.82836" transform="rotate(90 127.276 144.473)" fill="#EA4334" fill-opacity="0.68"/>
<ellipse cx="127.276" cy="191.6" rx="3.09139" ry="2.82836" transform="rotate(90 127.276 191.6)" fill="#EA4334" fill-opacity="0.68"/>
<ellipse cx="85.7935" cy="3.09139" rx="3.09139" ry="2.82836" transform="rotate(90 85.7935 3.09139)" fill="#EA4334" fill-opacity="0.68"/>
<ellipse cx="85.7935" cy="50.2191" rx="3.09139" ry="2.82836" transform="rotate(90 85.7935 50.2191)" fill="#EA4334" fill-opacity="0.68"/>
<ellipse cx="85.7935" cy="97.3461" rx="3.09139" ry="2.82836" transform="rotate(90 85.7935 97.3461)" fill="#EA4334" fill-opacity="0.68"/>
<ellipse cx="85.7935" cy="144.473" rx="3.09139" ry="2.82836" transform="rotate(90 85.7935 144.473)" fill="#EA4334" fill-opacity="0.68"/>
<ellipse cx="85.7935" cy="191.6" rx="3.09139" ry="2.82836" transform="rotate(90 85.7935 191.6)" fill="#EA4334" fill-opacity="0.68"/>
<ellipse cx="44.311" cy="3.09139" rx="3.09139" ry="2.82836" transform="rotate(90 44.311 3.09139)" fill="#EA4334" fill-opacity="0.68"/>
<ellipse cx="44.311" cy="50.2191" rx="3.09139" ry="2.82836" transform="rotate(90 44.311 50.2191)" fill="#EA4334" fill-opacity="0.68"/>
<ellipse cx="44.3111" cy="97.3461" rx="3.09139" ry="2.82836" transform="rotate(90 44.3111 97.3461)" fill="#EA4334" fill-opacity="0.68"/>
<ellipse cx="44.311" cy="144.473" rx="3.09139" ry="2.82836" transform="rotate(90 44.311 144.473)" fill="#EA4334" fill-opacity="0.68"/>
<ellipse cx="44.311" cy="191.6" rx="3.09139" ry="2.82836" transform="rotate(90 44.311 191.6)" fill="#EA4334" fill-opacity="0.68"/>
<ellipse cx="2.82841" cy="3.09139" rx="3.09139" ry="2.82836" transform="rotate(90 2.82841 3.09139)" fill="#EA4334" fill-opacity="0.68"/>
<ellipse cx="2.82841" cy="50.2191" rx="3.09139" ry="2.82836" transform="rotate(90 2.82841 50.2191)" fill="#EA4334" fill-opacity="0.68"/>
<ellipse cx="2.82841" cy="97.3461" rx="3.09139" ry="2.82836" transform="rotate(90 2.82841 97.3461)" fill="#EA4334" fill-opacity="0.68"/>
<ellipse cx="2.82841" cy="144.473" rx="3.09139" ry="2.82836" transform="rotate(90 2.82841 144.473)" fill="#EA4334" fill-opacity="0.68"/>
<ellipse cx="2.82841" cy="191.6" rx="3.09139" ry="2.82836" transform="rotate(90 2.82841 191.6)" fill="#EA4334" fill-opacity="0.68"/>
</svg>
