<svg width="34" height="24" viewBox="0 0 34 24" fill="none" xmlns="http://www.w3.org/2000/svg">
<path d="M24.2004 16.2624C24.2055 16.2095 24.2221 16.1607 24.2221 16.1078V15.6544C24.2221 15.4385 24.1869 15.2258 24.1163 15.0235C24.1163 15.0235 22.9863 13.5107 22.4519 11.7333C23.0372 10.4985 23.5684 8.96187 23.5684 7.43865C23.5684 7.08484 23.5425 6.74244 23.5061 6.40517C24.2688 5.60623 25.2991 5.15381 26.4374 5.15381C28.7876 5.15381 30.6946 7.07129 30.6946 10.0513C30.6946 12.4357 28.7543 15.0234 28.7543 15.0234C28.6858 15.2258 28.6505 15.4385 28.6505 15.6543V16.1077C28.6505 16.6732 28.9805 17.1879 29.4951 17.4234L32.5758 18.682C33.2918 19.012 33.8012 19.6698 33.9434 20.4438L33.9963 21.1214C34.0232 21.4742 33.9029 21.8218 33.6622 22.0802C33.4225 22.3406 33.0853 22.4869 32.7314 22.4869H27.696L27.4895 19.8338L27.476 19.7622C27.2239 18.3708 26.3046 17.1879 25.0201 16.5965L24.2004 16.2624Z" fill="white" stroke="white" stroke-width="1.5625"/>
<path d="M0.0564671 20.4438C0.19758 19.6698 0.707048 19.0119 1.42297 18.682L4.50569 17.4234C5.02033 17.1879 5.34825 16.6732 5.34825 16.1077V15.6543C5.34825 15.4385 5.31398 15.2258 5.24346 15.0234C5.24346 15.0234 3.3042 12.4357 3.3042 10.0513C3.3042 7.07129 5.21026 5.15381 7.56456 5.15381C8.7007 5.15381 9.73106 5.60623 10.4958 6.40723C10.4584 6.74344 10.4325 7.08477 10.4325 7.43858C10.4325 8.96075 10.9627 10.4975 11.5469 11.7321C11.0136 13.5096 9.88154 15.0234 9.88154 15.0234C9.81307 15.2258 9.77675 15.4385 9.77675 15.6543V16.1077C9.77675 16.1606 9.79441 16.2094 9.79959 16.2623L9.03592 16.5736C7.69744 17.1858 6.77811 18.3687 6.52284 19.7601L6.51036 19.8327L6.3049 22.4869H1.26739C0.913573 22.4869 0.576363 22.3406 0.337698 22.0802C0.0969753 21.8218 -0.0234194 21.4742 0.00360775 21.1214L0.0564671 20.4438Z" fill="white" stroke="white" stroke-width="1.5625"/>
<path d="M9.57116 17.8841L13.3003 16.3599C13.9228 16.0735 14.3202 15.4509 14.3202 14.7682V14.2183C14.3202 13.9589 14.2787 13.7005 14.1926 13.4546C14.1926 13.4546 11.8476 10.3252 11.8476 7.43863C11.8476 3.83191 14.1541 1.51294 17.0003 1.51294C19.8454 1.51294 22.153 3.83198 22.153 7.43863C22.153 10.3252 19.806 13.4546 19.806 13.4546C19.7219 13.7005 19.6783 13.9589 19.6783 14.2183V14.7682C19.6783 15.4509 20.0788 16.0735 20.7004 16.3599L24.4295 17.8841C25.2959 18.2815 25.9133 19.0784 26.0834 20.0164L26.2754 22.4869H17.0003H7.7252L7.91506 20.0164C8.08738 19.0785 8.70476 18.2816 9.57116 17.8841Z" fill="white" stroke="white" stroke-width="1.5625"/>
</svg>
