<svg width="64" height="64" viewBox="0 0 64 64" fill="none" xmlns="http://www.w3.org/2000/svg">
<g clip-path="url(#clip0_49_935)">
<path d="M32 64C14.3563 64 0 49.6437 0 32C0 14.3563 14.3563 0 32 0C49.6437 0 64 14.3563 64 32C64 49.6437 49.6437 64 32 64ZM32 5.33125C17.2938 5.33125 5.33125 17.2938 5.33125 32C5.33125 46.7062 17.2938 58.6688 32 58.6688C46.7062 58.6688 58.6688 46.7062 58.6688 32C58.6688 17.2938 46.7062 5.33125 32 5.33125Z" fill="#3688FF"/>
<path d="M42.6688 34.6686H21.3313C19.8563 34.6686 18.6626 33.4748 18.6626 31.9998C18.6626 30.5248 19.8563 29.3311 21.3313 29.3311H42.6626C44.1376 29.3311 45.3313 30.5248 45.3313 31.9998C45.3313 33.4748 44.1376 34.6686 42.6688 34.6686Z" fill="white"/>
<path d="M31.9998 45.3313C30.5248 45.3313 29.3311 44.1376 29.3311 42.6626V21.3313C29.3311 19.8563 30.5248 18.6626 31.9998 18.6626C33.4748 18.6626 34.6686 19.8563 34.6686 21.3313V42.6626C34.6686 44.1376 33.4748 45.3313 31.9998 45.3313Z" fill="white"/>
</g>
<defs>
<clipPath id="clip0_49_935">
<rect width="64" height="64" fill="white"/>
</clipPath>
</defs>
</svg>
