<svg width="38" height="38" viewBox="0 0 38 38" fill="none" xmlns="http://www.w3.org/2000/svg">
<path fill-rule="evenodd" clip-rule="evenodd" d="M0.0556641 0H13.8573V13.7459H0.0556641V0ZM34.4808 34.4808H38V37.9443H34.4808V34.4808ZM27.7176 34.4746H31.2368V37.7743H27.7176H27.7145H24.1984V31.0265H27.6063V27.6063H31.0729V20.7874H34.5921V24.1396H37.9443V27.6032H34.5921V31.0667H31.1255H31.0729H27.7176V34.4746ZM17.2682 27.5506H20.6761V24.0871H17.3796V20.6235H20.6761V17.16H17.3239V20.6235H13.8016V17.16H17.2651V6.87451H20.7843V17.1569H24.1922V20.6204H27.5444V17.1569H31.0636V20.6204H27.7176V24.084H24.1984V30.9028H20.7874V37.7773H17.2682V27.5506ZM34.422 17.1569H37.9412V20.6204H34.422V17.1569ZM6.93018 17.1569H10.4494V20.6204H6.93018V17.1569ZM0.0556641 17.1569H3.57487V20.6204H0.0556641V17.1569ZM17.2682 0H20.7874V3.46354H17.2682V0ZM0 24.1396H13.8016V37.8856H0V24.1396ZM3.35221 27.4795H10.4494V34.5488H3.35221V27.4795ZM24.1396 0H37.9412V13.7459H24.1396V0ZM27.495 3.33984H34.5921V10.4092H27.495V3.33984ZM3.40788 3.33984H10.505V10.4092H3.40788V3.33984Z" fill="black"/>
</svg>
