<svg width="677" height="192" viewBox="0 0 677 192" fill="none" xmlns="http://www.w3.org/2000/svg">
<path d="M159.011 62.9716C157.399 62.9716 156.056 62.4136 154.981 61.2976C153.906 60.1816 153.369 58.8382 153.369 57.2676C153.369 55.6142 153.906 54.2502 154.981 53.1756C156.056 52.0596 157.399 51.5016 159.011 51.5016C160.664 51.5016 162.008 52.0596 163.041 53.1756C164.116 54.2502 164.653 55.6142 164.653 57.2676C164.653 58.8382 164.116 60.1816 163.041 61.2976C162.008 62.4136 160.664 62.9716 159.011 62.9716ZM159.011 44.6195C157.399 44.6195 156.056 44.0615 154.981 42.9456C153.906 41.8295 153.369 40.4862 153.369 38.9156C153.369 37.2622 153.906 35.8982 154.981 34.8235C156.056 33.7075 157.399 33.1495 159.011 33.1495C160.664 33.1495 162.008 33.7075 163.041 34.8235C164.116 35.8982 164.653 37.2622 164.653 38.9156C164.653 40.4862 164.116 41.8295 163.041 42.9456C162.008 44.0615 160.664 44.6195 159.011 44.6195Z" fill="white"/>
<path d="M522.604 68.453C520.992 68.453 519.649 67.895 518.574 66.779C517.5 65.663 516.962 64.3197 516.962 62.749C516.962 61.0957 517.5 59.7317 518.574 58.657C519.649 57.541 520.992 56.983 522.604 56.983C524.258 56.983 525.601 57.541 526.634 58.657C527.709 59.7317 528.246 61.0957 528.246 62.749C528.246 64.3197 527.709 65.663 526.634 66.779C525.601 67.895 524.258 68.453 522.604 68.453ZM522.604 50.101C520.992 50.101 519.649 49.543 518.574 48.427C517.5 47.311 516.962 45.9677 516.962 44.397C516.962 42.7437 517.5 41.3797 518.574 40.305C519.649 39.189 520.992 38.631 522.604 38.631C524.258 38.631 525.601 39.189 526.634 40.305C527.709 41.3797 528.246 42.7437 528.246 44.397C528.246 45.9677 527.709 47.311 526.634 48.427C525.601 49.543 524.258 50.101 522.604 50.101Z" fill="white"/>
<path d="M41.4632 183.479V181.379H45.1432C46.1032 181.379 46.9432 181.172 47.6632 180.759C48.3965 180.346 48.9632 179.772 49.3632 179.039C49.7765 178.292 49.9832 177.432 49.9832 176.459C49.9832 175.499 49.7765 174.652 49.3632 173.919C48.9498 173.186 48.3765 172.612 47.6432 172.199C46.9232 171.786 46.0898 171.579 45.1432 171.579H41.4632V169.479H45.2032C46.2165 169.479 47.1565 169.659 48.0232 170.019C48.8898 170.366 49.6432 170.859 50.2832 171.499C50.9365 172.126 51.4432 172.866 51.8032 173.719C52.1632 174.559 52.3432 175.479 52.3432 176.479C52.3432 177.466 52.1632 178.386 51.8032 179.239C51.4432 180.092 50.9432 180.839 50.3032 181.479C49.6632 182.106 48.9098 182.599 48.0432 182.959C47.1765 183.306 46.2432 183.479 45.2432 183.479H41.4632ZM39.8832 183.479V169.479H42.1832V183.479H39.8832ZM58.4078 183.679C57.5412 183.679 56.7545 183.459 56.0478 183.019C55.3545 182.579 54.8012 181.986 54.3878 181.239C53.9878 180.479 53.7878 179.632 53.7878 178.699C53.7878 177.752 53.9878 176.906 54.3878 176.159C54.8012 175.399 55.3545 174.799 56.0478 174.359C56.7545 173.906 57.5412 173.679 58.4078 173.679C59.1412 173.679 59.7878 173.839 60.3478 174.159C60.9212 174.466 61.3745 174.892 61.7078 175.439C62.0412 175.986 62.2078 176.606 62.2078 177.299V180.059C62.2078 180.752 62.0412 181.372 61.7078 181.919C61.3878 182.466 60.9412 182.899 60.3678 183.219C59.7945 183.526 59.1412 183.679 58.4078 183.679ZM58.7678 181.599C59.5812 181.599 60.2345 181.326 60.7278 180.779C61.2345 180.232 61.4878 179.532 61.4878 178.679C61.4878 178.106 61.3745 177.599 61.1478 177.159C60.9212 176.719 60.6012 176.379 60.1878 176.139C59.7878 175.886 59.3145 175.759 58.7678 175.759C58.2345 175.759 57.7612 175.886 57.3478 176.139C56.9478 176.379 56.6278 176.719 56.3878 177.159C56.1612 177.599 56.0478 178.106 56.0478 178.679C56.0478 179.252 56.1612 179.759 56.3878 180.199C56.6278 180.639 56.9478 180.986 57.3478 181.239C57.7612 181.479 58.2345 181.599 58.7678 181.599ZM61.3478 183.479V180.899L61.7278 178.559L61.3478 176.239V173.879H63.5478V183.479H61.3478ZM69.0894 183.579L64.9894 173.879H67.4094L70.2094 180.999H69.5094L72.4694 173.879H74.9094L70.4494 183.579H69.0894ZM66.2294 187.479L69.2094 181.339L70.4494 183.579L68.6694 187.479H66.2294ZM79.1294 183.679C78.5961 183.679 78.0827 183.612 77.5894 183.479C77.0961 183.332 76.6427 183.132 76.2294 182.879C75.8161 182.612 75.4561 182.292 75.1494 181.919L76.5494 180.519C76.8827 180.906 77.2627 181.199 77.6894 181.399C78.1294 181.586 78.6227 181.679 79.1694 181.679C79.6627 181.679 80.0361 181.606 80.2894 181.459C80.5427 181.312 80.6694 181.099 80.6694 180.819C80.6694 180.526 80.5494 180.299 80.3094 180.139C80.0694 179.979 79.7561 179.846 79.3694 179.739C78.9961 179.619 78.5961 179.499 78.1694 179.379C77.7561 179.259 77.3561 179.099 76.9694 178.899C76.5961 178.686 76.2894 178.399 76.0494 178.039C75.8094 177.679 75.6894 177.212 75.6894 176.639C75.6894 176.026 75.8294 175.499 76.1094 175.059C76.4027 174.619 76.8094 174.279 77.3294 174.039C77.8627 173.799 78.4961 173.679 79.2294 173.679C80.0027 173.679 80.6827 173.819 81.2694 174.099C81.8694 174.366 82.3694 174.772 82.7694 175.319L81.3694 176.719C81.0894 176.372 80.7694 176.112 80.4094 175.939C80.0494 175.766 79.6361 175.679 79.1694 175.679C78.7294 175.679 78.3894 175.746 78.1494 175.879C77.9094 176.012 77.7894 176.206 77.7894 176.459C77.7894 176.726 77.9094 176.932 78.1494 177.079C78.3894 177.226 78.6961 177.352 79.0694 177.459C79.4561 177.566 79.8561 177.686 80.2694 177.819C80.6961 177.939 81.0961 178.112 81.4694 178.339C81.8561 178.552 82.1694 178.846 82.4094 179.219C82.6494 179.579 82.7694 180.052 82.7694 180.639C82.7694 181.572 82.4427 182.312 81.7894 182.859C81.1361 183.406 80.2494 183.679 79.1294 183.679Z" fill="white"/>
<path d="M227.819 185.124V171.124H230.119V185.124H227.819ZM236.719 185.124V171.124H239.019V185.124H236.719ZM229.399 178.924V176.824H237.219V178.924H229.399ZM246.157 185.324C245.224 185.324 244.377 185.104 243.617 184.664C242.857 184.21 242.25 183.604 241.797 182.844C241.357 182.084 241.137 181.237 241.137 180.304C241.137 179.37 241.357 178.53 241.797 177.784C242.25 177.037 242.857 176.444 243.617 176.004C244.377 175.55 245.224 175.324 246.157 175.324C247.104 175.324 247.957 175.544 248.717 175.984C249.477 176.424 250.077 177.024 250.517 177.784C250.97 178.53 251.197 179.37 251.197 180.304C251.197 181.237 250.97 182.084 250.517 182.844C250.077 183.604 249.477 184.21 248.717 184.664C247.957 185.104 247.104 185.324 246.157 185.324ZM246.157 183.204C246.704 183.204 247.184 183.084 247.597 182.844C248.024 182.59 248.35 182.244 248.577 181.804C248.817 181.364 248.937 180.864 248.937 180.304C248.937 179.744 248.817 179.25 248.577 178.824C248.337 178.397 248.01 178.064 247.597 177.824C247.184 177.57 246.704 177.444 246.157 177.444C245.624 177.444 245.144 177.57 244.717 177.824C244.304 178.064 243.977 178.397 243.737 178.824C243.51 179.25 243.397 179.744 243.397 180.304C243.397 180.864 243.51 181.364 243.737 181.804C243.977 182.244 244.304 182.59 244.717 182.844C245.144 183.084 245.624 183.204 246.157 183.204ZM256.967 185.324C256.153 185.324 255.427 185.144 254.787 184.784C254.16 184.424 253.667 183.93 253.307 183.304C252.96 182.664 252.787 181.93 252.787 181.104V175.524H254.987V181.004C254.987 181.47 255.06 181.87 255.207 182.204C255.367 182.524 255.593 182.77 255.887 182.944C256.193 183.117 256.553 183.204 256.967 183.204C257.607 183.204 258.093 183.017 258.427 182.644C258.773 182.257 258.947 181.71 258.947 181.004V175.524H261.147V181.104C261.147 181.944 260.967 182.684 260.607 183.324C260.26 183.95 259.773 184.444 259.147 184.804C258.52 185.15 257.793 185.324 256.967 185.324ZM263.359 185.124V175.524H265.559V185.124H263.359ZM265.559 179.784L264.799 179.404C264.799 178.19 265.065 177.21 265.599 176.464C266.145 175.704 266.965 175.324 268.059 175.324C268.539 175.324 268.972 175.41 269.359 175.584C269.745 175.757 270.105 176.037 270.439 176.424L268.999 177.904C268.825 177.717 268.632 177.584 268.419 177.504C268.205 177.424 267.959 177.384 267.679 177.384C267.065 177.384 266.559 177.577 266.159 177.964C265.759 178.35 265.559 178.957 265.559 179.784ZM274.428 185.324C273.895 185.324 273.382 185.257 272.888 185.124C272.395 184.977 271.942 184.777 271.528 184.524C271.115 184.257 270.755 183.937 270.448 183.564L271.848 182.164C272.182 182.55 272.562 182.844 272.988 183.044C273.428 183.23 273.922 183.324 274.468 183.324C274.962 183.324 275.335 183.25 275.588 183.104C275.842 182.957 275.968 182.744 275.968 182.464C275.968 182.17 275.848 181.944 275.608 181.784C275.368 181.624 275.055 181.49 274.668 181.384C274.295 181.264 273.895 181.144 273.468 181.024C273.055 180.904 272.655 180.744 272.268 180.544C271.895 180.33 271.588 180.044 271.348 179.684C271.108 179.324 270.988 178.857 270.988 178.284C270.988 177.67 271.128 177.144 271.408 176.704C271.702 176.264 272.108 175.924 272.628 175.684C273.162 175.444 273.795 175.324 274.528 175.324C275.302 175.324 275.982 175.464 276.568 175.744C277.168 176.01 277.668 176.417 278.068 176.964L276.668 178.364C276.388 178.017 276.068 177.757 275.708 177.584C275.348 177.41 274.935 177.324 274.468 177.324C274.028 177.324 273.688 177.39 273.448 177.524C273.208 177.657 273.088 177.85 273.088 178.104C273.088 178.37 273.208 178.577 273.448 178.724C273.688 178.87 273.995 178.997 274.368 179.104C274.755 179.21 275.155 179.33 275.568 179.464C275.995 179.584 276.395 179.757 276.768 179.984C277.155 180.197 277.468 180.49 277.708 180.864C277.948 181.224 278.068 181.697 278.068 182.284C278.068 183.217 277.742 183.957 277.088 184.504C276.435 185.05 275.548 185.324 274.428 185.324Z" fill="white"/>
<rect x="1" y="1.06055" width="129.592" height="122.181" rx="25" fill="white" stroke="#EA4334" stroke-width="2"/>
<path d="M58.8349 61.3096C57.6236 61.3096 56.5119 60.9723 55.4999 60.2976C54.5033 59.6076 53.7059 58.6416 53.1079 57.3996C52.5099 56.1576 52.2109 54.6933 52.2109 53.0066C52.2109 51.3199 52.5023 49.8633 53.0849 48.6366C53.6829 47.3946 54.4803 46.4363 55.4769 45.7616C56.4736 45.0869 57.5776 44.7496 58.7889 44.7496C60.0156 44.7496 61.1273 45.0869 62.1239 45.7616C63.1206 46.4363 63.9103 47.3946 64.4929 48.6366C65.0909 49.8633 65.3899 51.3276 65.3899 53.0296C65.3899 54.7163 65.0909 56.1806 64.4929 57.4226C63.9103 58.6646 63.1206 59.6229 62.1239 60.2976C61.1426 60.9723 60.0463 61.3096 58.8349 61.3096ZM58.7889 58.8256C59.5863 58.8256 60.2763 58.6109 60.8589 58.1816C61.4416 57.7523 61.8939 57.1083 62.2159 56.2496C62.5533 55.3909 62.7219 54.3099 62.7219 53.0066C62.7219 51.7186 62.5533 50.6453 62.2159 49.7866C61.8939 48.9279 61.4339 48.2916 60.8359 47.8776C60.2533 47.4483 59.5709 47.2336 58.7889 47.2336C58.0069 47.2336 57.3169 47.4483 56.7189 47.8776C56.1363 48.2916 55.6839 48.9279 55.3619 49.7866C55.0399 50.6299 54.8789 51.7033 54.8789 53.0066C54.8789 54.3099 55.0399 55.3909 55.3619 56.2496C55.6839 57.1083 56.1363 57.7523 56.7189 58.1816C57.3169 58.6109 58.0069 58.8256 58.7889 58.8256ZM73.9062 61.3096C72.6949 61.3096 71.5832 60.9723 70.5712 60.2976C69.5746 59.6076 68.7772 58.6416 68.1792 57.3996C67.5812 56.1576 67.2822 54.6933 67.2822 53.0066C67.2822 51.3199 67.5736 49.8633 68.1562 48.6366C68.7542 47.3946 69.5516 46.4363 70.5482 45.7616C71.5449 45.0869 72.6489 44.7496 73.8602 44.7496C75.0869 44.7496 76.1986 45.0869 77.1952 45.7616C78.1919 46.4363 78.9816 47.3946 79.5642 48.6366C80.1622 49.8633 80.4612 51.3276 80.4612 53.0296C80.4612 54.7163 80.1622 56.1806 79.5642 57.4226C78.9816 58.6646 78.1919 59.6229 77.1952 60.2976C76.2139 60.9723 75.1176 61.3096 73.9062 61.3096ZM73.8602 58.8256C74.6576 58.8256 75.3476 58.6109 75.9302 58.1816C76.5129 57.7523 76.9652 57.1083 77.2872 56.2496C77.6246 55.3909 77.7932 54.3099 77.7932 53.0066C77.7932 51.7186 77.6246 50.6453 77.2872 49.7866C76.9652 48.9279 76.5052 48.2916 75.9072 47.8776C75.3246 47.4483 74.6422 47.2336 73.8602 47.2336C73.0782 47.2336 72.3882 47.4483 71.7902 47.8776C71.2076 48.2916 70.7552 48.9279 70.4332 49.7866C70.1112 50.6299 69.9502 51.7033 69.9502 53.0066C69.9502 54.3099 70.1112 55.3909 70.4332 56.2496C70.7552 57.1083 71.2076 57.7523 71.7902 58.1816C72.3882 58.6109 73.0782 58.8256 73.8602 58.8256Z" fill="#EA4334"/>
<rect x="190.155" y="1" width="129.592" height="122.181" rx="25" fill="white" stroke="#EA4334" stroke-width="2"/>
<path d="M248.647 61.3096C247.436 61.3096 246.324 60.9723 245.312 60.2976C244.315 59.6076 243.518 58.6416 242.92 57.3996C242.322 56.1576 242.023 54.6933 242.023 53.0066C242.023 51.3199 242.314 49.8633 242.897 48.6366C243.495 47.3946 244.292 46.4363 245.289 45.7616C246.286 45.0869 247.39 44.7496 248.601 44.7496C249.828 44.7496 250.939 45.0869 251.936 45.7616C252.933 46.4363 253.722 47.3946 254.305 48.6366C254.903 49.8633 255.202 51.3276 255.202 53.0296C255.202 54.7163 254.903 56.1806 254.305 57.4226C253.722 58.6646 252.933 59.6229 251.936 60.2976C250.955 60.9723 249.858 61.3096 248.647 61.3096ZM248.601 58.8256C249.398 58.8256 250.088 58.6109 250.671 58.1816C251.254 57.7523 251.706 57.1083 252.028 56.2496C252.365 55.3909 252.534 54.3099 252.534 53.0066C252.534 51.7186 252.365 50.6453 252.028 49.7866C251.706 48.9279 251.246 48.2916 250.648 47.8776C250.065 47.4483 249.383 47.2336 248.601 47.2336C247.819 47.2336 247.129 47.4483 246.531 47.8776C245.948 48.2916 245.496 48.9279 245.174 49.7866C244.852 50.6299 244.691 51.7033 244.691 53.0066C244.691 54.3099 244.852 55.3909 245.174 56.2496C245.496 57.1083 245.948 57.7523 246.531 58.1816C247.129 58.6109 247.819 58.8256 248.601 58.8256ZM259.969 61.0796V44.9796H262.568V61.0796H259.969ZM256.749 47.3486V44.9796H262.338V47.3486H256.749Z" fill="#EA4334"/>
<rect x="370.26" y="1" width="129.592" height="122.181" rx="25" fill="white" stroke="#EA4334" stroke-width="2"/>
<path d="M421.225 55.3296L426.952 44.9796H429.942L424.077 55.3296H421.225ZM421.225 56.9396V55.3296L422.352 54.5706H433.714V56.9396H421.225ZM428.861 61.0796V50.5456H431.46V61.0796H428.861ZM439.739 61.3096C438.62 61.3096 437.623 61.1179 436.749 60.7346C435.875 60.3359 435.139 59.7609 434.541 59.0096L436.335 57.2156C436.657 57.7063 437.109 58.0973 437.692 58.3886C438.29 58.6799 438.957 58.8256 439.693 58.8256C440.368 58.8256 440.958 58.7029 441.464 58.4576C441.97 58.2123 442.369 57.8596 442.66 57.3996C442.951 56.9396 443.097 56.3953 443.097 55.7666C443.097 55.1073 442.951 54.5629 442.66 54.1336C442.384 53.6889 442.008 53.3593 441.533 53.1446C441.073 52.9146 440.575 52.7996 440.038 52.7996C439.425 52.7996 438.873 52.8686 438.382 53.0066C437.907 53.1446 437.439 53.3899 436.979 53.7426L437.048 52.0866C437.293 51.7646 437.577 51.5039 437.899 51.3046C438.221 51.0899 438.597 50.9289 439.026 50.8216C439.455 50.7143 439.961 50.6606 440.544 50.6606C441.679 50.6606 442.629 50.8983 443.396 51.3736C444.178 51.8489 444.768 52.4853 445.167 53.2826C445.566 54.0646 445.765 54.9386 445.765 55.9046C445.765 56.9473 445.504 57.8749 444.983 58.6876C444.477 59.5003 443.772 60.1443 442.867 60.6196C441.962 61.0796 440.92 61.3096 439.739 61.3096ZM436.979 53.7426L435.53 52.2936L436.243 44.9796H438.658L437.83 52.5926L436.979 53.7426ZM436.703 47.3486L436.243 44.9796H444.868V47.3486H436.703Z" fill="#EA4334"/>
<rect x="545.43" y="1" width="129.592" height="122.181" rx="25" fill="white" stroke="#EA4334" stroke-width="2"/>
<path d="M604.019 54.001C602.9 54.001 601.903 53.8093 601.029 53.426C600.155 53.0273 599.419 52.4523 598.821 51.701L600.615 49.907C600.937 50.3977 601.39 50.7887 601.972 51.08C602.57 51.3713 603.237 51.517 603.973 51.517C604.648 51.517 605.238 51.3943 605.744 51.149C606.25 50.9037 606.649 50.551 606.94 50.091C607.232 49.631 607.377 49.0867 607.377 48.458C607.377 47.7987 607.232 47.2543 606.94 46.825C606.664 46.3803 606.289 46.0507 605.813 45.836C605.353 45.606 604.855 45.491 604.318 45.491C603.705 45.491 603.153 45.56 602.662 45.698C602.187 45.836 601.719 46.0813 601.259 46.434L601.328 44.778C601.574 44.456 601.857 44.1953 602.179 43.996C602.501 43.7813 602.877 43.6203 603.306 43.513C603.736 43.4057 604.242 43.352 604.824 43.352C605.959 43.352 606.91 43.5897 607.676 44.065C608.458 44.5403 609.049 45.1767 609.447 45.974C609.846 46.756 610.045 47.63 610.045 48.596C610.045 49.6387 609.785 50.5663 609.263 51.379C608.757 52.1917 608.052 52.8357 607.147 53.311C606.243 53.771 605.2 54.001 604.019 54.001ZM601.259 46.434L599.81 44.985L600.523 37.671H602.938L602.11 45.284L601.259 46.434ZM600.983 40.04L600.523 37.671H609.148V40.04H600.983ZM616.529 54.001C615.456 54.001 614.482 53.8093 613.608 53.426C612.75 53.0273 612.021 52.4523 611.423 51.701L613.217 49.907C613.539 50.3977 613.992 50.7887 614.574 51.08C615.157 51.3713 615.793 51.517 616.483 51.517C617.143 51.517 617.71 51.3943 618.185 51.149C618.661 50.9037 619.029 50.5587 619.289 50.114C619.565 49.6693 619.703 49.1557 619.703 48.573C619.703 47.9597 619.565 47.4383 619.289 47.009C619.029 46.5797 618.645 46.25 618.139 46.02C617.649 45.7747 617.051 45.652 616.345 45.652C616.069 45.652 615.786 45.675 615.494 45.721C615.203 45.7517 614.942 45.8053 614.712 45.882L615.885 44.364C616.207 44.2413 616.545 44.1417 616.897 44.065C617.265 43.973 617.618 43.927 617.955 43.927C618.783 43.927 619.527 44.1263 620.186 44.525C620.861 44.9237 621.39 45.4833 621.773 46.204C622.172 46.9093 622.371 47.745 622.371 48.711C622.371 49.7537 622.126 50.6737 621.635 51.471C621.145 52.2683 620.462 52.8893 619.588 53.334C618.714 53.7787 617.695 54.001 616.529 54.001ZM614.712 45.882V44.318L619.013 39.304L622.187 39.235L617.702 44.387L614.712 45.882ZM612.228 40.04V37.671H622.187V39.235L619.91 40.04H612.228Z" fill="#EA4334"/>
<path d="M343.549 62.9716C341.937 62.9716 340.593 62.4136 339.519 61.2976C338.444 60.1816 337.907 58.8382 337.907 57.2676C337.907 55.6142 338.444 54.2502 339.519 53.1756C340.593 52.0596 341.937 51.5016 343.549 51.5016C345.202 51.5016 346.545 52.0596 347.579 53.1756C348.653 54.2502 349.191 55.6142 349.191 57.2676C349.191 58.8382 348.653 60.1816 347.579 61.2976C346.545 62.4136 345.202 62.9716 343.549 62.9716ZM343.549 44.6195C341.937 44.6195 340.593 44.0615 339.519 42.9456C338.444 41.8295 337.907 40.4862 337.907 38.9156C337.907 37.2622 338.444 35.8982 339.519 34.8235C340.593 33.7075 341.937 33.1495 343.549 33.1495C345.202 33.1495 346.545 33.7075 347.579 34.8235C348.653 35.8982 349.191 37.2622 349.191 38.9156C349.191 40.4862 348.653 41.8295 347.579 42.9456C346.545 44.0615 345.202 44.6195 343.549 44.6195Z" fill="white"/>
<path d="M403.514 188.413V175.113H405.034L410.563 184.214H409.575L415.104 175.113H416.624V188.413H414.439V178.951L414.933 179.084L410.829 185.829H409.309L405.205 179.084L405.699 178.951V188.413H403.514ZM419.242 188.413V179.293H421.332V188.413H419.242ZM420.287 177.621C419.933 177.621 419.635 177.5 419.394 177.26C419.166 177.019 419.052 176.721 419.052 176.367C419.052 176.012 419.166 175.714 419.394 175.474C419.635 175.233 419.933 175.113 420.287 175.113C420.655 175.113 420.952 175.233 421.18 175.474C421.408 175.714 421.522 176.012 421.522 176.367C421.522 176.721 421.408 177.019 421.18 177.26C420.952 177.5 420.655 177.621 420.287 177.621ZM429.927 188.413V183.15C429.927 182.542 429.731 182.041 429.338 181.649C428.958 181.256 428.464 181.06 427.856 181.06C427.451 181.06 427.09 181.148 426.773 181.326C426.457 181.503 426.21 181.75 426.032 182.067C425.855 182.383 425.766 182.744 425.766 183.15L424.949 182.694C424.949 181.997 425.101 181.383 425.405 180.851C425.709 180.306 426.127 179.882 426.659 179.578C427.204 179.261 427.812 179.103 428.483 179.103C429.167 179.103 429.775 179.28 430.307 179.635C430.839 179.977 431.257 180.426 431.561 180.984C431.865 181.528 432.017 182.098 432.017 182.694V188.413H429.927ZM423.676 188.413V179.293H425.766V188.413H423.676ZM437.884 188.603C437.112 188.603 436.421 188.432 435.813 188.09C435.218 187.748 434.749 187.279 434.407 186.684C434.078 186.076 433.913 185.379 433.913 184.594V179.293H436.003V184.499C436.003 184.942 436.073 185.322 436.212 185.639C436.364 185.943 436.58 186.177 436.858 186.342C437.15 186.506 437.492 186.589 437.884 186.589C438.492 186.589 438.955 186.411 439.271 186.057C439.601 185.689 439.765 185.17 439.765 184.499V179.293H441.855V184.594C441.855 185.392 441.684 186.095 441.342 186.703C441.013 187.298 440.551 187.767 439.955 188.109C439.36 188.438 438.67 188.603 437.884 188.603ZM445.344 188.413V175.493H447.434V188.413H445.344ZM443.159 181.193V179.293H449.619V181.193H443.159ZM455.115 188.603C454.203 188.603 453.379 188.4 452.645 187.995C451.923 187.577 451.346 187.007 450.916 186.285C450.498 185.563 450.289 184.752 450.289 183.853C450.289 182.953 450.498 182.149 450.916 181.44C451.334 180.718 451.897 180.148 452.607 179.73C453.329 179.312 454.127 179.103 455.001 179.103C455.849 179.103 456.597 179.299 457.243 179.692C457.901 180.084 458.414 180.623 458.782 181.307C459.162 181.991 459.352 182.77 459.352 183.644C459.352 183.796 459.339 183.954 459.314 184.119C459.301 184.271 459.276 184.442 459.238 184.632H451.752V182.922H458.155L457.376 183.606C457.35 183.048 457.243 182.58 457.053 182.2C456.863 181.82 456.59 181.528 456.236 181.326C455.894 181.123 455.469 181.022 454.963 181.022C454.431 181.022 453.968 181.136 453.576 181.364C453.183 181.592 452.879 181.915 452.664 182.333C452.448 182.738 452.341 183.226 452.341 183.796C452.341 184.366 452.455 184.866 452.683 185.297C452.911 185.727 453.234 186.063 453.652 186.304C454.07 186.532 454.551 186.646 455.096 186.646C455.564 186.646 455.995 186.563 456.388 186.399C456.793 186.234 457.135 185.993 457.414 185.677L458.744 187.026C458.3 187.545 457.762 187.938 457.129 188.204C456.495 188.47 455.824 188.603 455.115 188.603ZM464.01 188.603C463.503 188.603 463.016 188.539 462.547 188.413C462.078 188.273 461.648 188.083 461.255 187.843C460.862 187.589 460.52 187.285 460.229 186.931L461.559 185.601C461.876 185.968 462.237 186.247 462.642 186.437C463.06 186.614 463.529 186.703 464.048 186.703C464.517 186.703 464.871 186.633 465.112 186.494C465.353 186.354 465.473 186.152 465.473 185.886C465.473 185.607 465.359 185.392 465.131 185.24C464.903 185.088 464.605 184.961 464.238 184.86C463.883 184.746 463.503 184.632 463.098 184.518C462.705 184.404 462.325 184.252 461.958 184.062C461.603 183.859 461.312 183.587 461.084 183.245C460.856 182.903 460.742 182.459 460.742 181.915C460.742 181.332 460.875 180.832 461.141 180.414C461.42 179.996 461.806 179.673 462.3 179.445C462.807 179.217 463.408 179.103 464.105 179.103C464.84 179.103 465.486 179.236 466.043 179.502C466.613 179.755 467.088 180.141 467.468 180.661L466.138 181.991C465.872 181.661 465.568 181.414 465.226 181.25C464.884 181.085 464.491 181.003 464.048 181.003C463.63 181.003 463.307 181.066 463.079 181.193C462.851 181.319 462.737 181.503 462.737 181.744C462.737 181.997 462.851 182.193 463.079 182.333C463.307 182.472 463.598 182.592 463.953 182.694C464.32 182.795 464.7 182.909 465.093 183.036C465.498 183.15 465.878 183.314 466.233 183.53C466.6 183.732 466.898 184.011 467.126 184.366C467.354 184.708 467.468 185.157 467.468 185.715C467.468 186.601 467.158 187.304 466.537 187.824C465.916 188.343 465.074 188.603 464.01 188.603Z" fill="white"/>
<path d="M581.929 190.238C580.933 190.238 580.087 190.058 579.391 189.698C578.695 189.338 578.071 188.81 577.519 188.114L578.923 186.71C579.271 187.214 579.685 187.61 580.165 187.898C580.645 188.174 581.257 188.312 582.001 188.312C582.697 188.312 583.249 188.168 583.657 187.88C584.077 187.592 584.287 187.196 584.287 186.692C584.287 186.272 584.179 185.93 583.963 185.666C583.747 185.402 583.459 185.186 583.099 185.018C582.751 184.838 582.361 184.682 581.929 184.55C581.509 184.406 581.083 184.25 580.651 184.082C580.231 183.902 579.841 183.68 579.481 183.416C579.133 183.152 578.851 182.81 578.635 182.39C578.419 181.97 578.311 181.436 578.311 180.788C578.311 180.044 578.491 179.414 578.851 178.898C579.223 178.37 579.721 177.968 580.345 177.692C580.969 177.416 581.665 177.278 582.433 177.278C583.261 177.278 583.999 177.44 584.647 177.764C585.307 178.088 585.841 178.502 586.249 179.006L584.845 180.41C584.485 180.002 584.107 179.702 583.711 179.51C583.327 179.306 582.883 179.204 582.379 179.204C581.755 179.204 581.263 179.33 580.903 179.582C580.555 179.834 580.381 180.188 580.381 180.644C580.381 181.028 580.489 181.34 580.705 181.58C580.921 181.808 581.203 182.006 581.551 182.174C581.911 182.33 582.301 182.48 582.721 182.624C583.153 182.768 583.579 182.93 583.999 183.11C584.431 183.29 584.821 183.524 585.169 183.812C585.529 184.088 585.817 184.448 586.033 184.892C586.249 185.336 586.357 185.894 586.357 186.566C586.357 187.694 585.955 188.588 585.151 189.248C584.359 189.908 583.285 190.238 581.929 190.238ZM592.06 190.238C591.196 190.238 590.416 190.046 589.72 189.662C589.036 189.266 588.49 188.726 588.082 188.042C587.686 187.358 587.488 186.59 587.488 185.738C587.488 184.886 587.686 184.124 588.082 183.452C588.478 182.768 589.012 182.228 589.684 181.832C590.368 181.436 591.124 181.238 591.952 181.238C592.756 181.238 593.464 181.424 594.076 181.796C594.7 182.168 595.186 182.678 595.534 183.326C595.894 183.974 596.074 184.712 596.074 185.54C596.074 185.684 596.062 185.834 596.038 185.99C596.026 186.134 596.002 186.296 595.966 186.476H588.874V184.856H594.94L594.202 185.504C594.178 184.976 594.076 184.532 593.896 184.172C593.716 183.812 593.458 183.536 593.122 183.344C592.798 183.152 592.396 183.056 591.916 183.056C591.412 183.056 590.974 183.164 590.602 183.38C590.23 183.596 589.942 183.902 589.738 184.298C589.534 184.682 589.432 185.144 589.432 185.684C589.432 186.224 589.54 186.698 589.756 187.106C589.972 187.514 590.278 187.832 590.674 188.06C591.07 188.276 591.526 188.384 592.042 188.384C592.486 188.384 592.894 188.306 593.266 188.15C593.65 187.994 593.974 187.766 594.238 187.466L595.498 188.744C595.078 189.236 594.568 189.608 593.968 189.86C593.368 190.112 592.732 190.238 592.06 190.238ZM601.639 190.238C600.787 190.238 600.013 190.04 599.317 189.644C598.633 189.248 598.093 188.708 597.697 188.024C597.301 187.34 597.103 186.578 597.103 185.738C597.103 184.886 597.301 184.124 597.697 183.452C598.093 182.768 598.633 182.228 599.317 181.832C600.013 181.436 600.787 181.238 601.639 181.238C602.311 181.238 602.935 181.37 603.511 181.634C604.099 181.886 604.597 182.252 605.005 182.732L603.709 184.046C603.457 183.746 603.151 183.524 602.791 183.38C602.443 183.224 602.059 183.146 601.639 183.146C601.147 183.146 600.709 183.26 600.325 183.488C599.953 183.704 599.659 184.004 599.443 184.388C599.239 184.772 599.137 185.222 599.137 185.738C599.137 186.242 599.239 186.692 599.443 187.088C599.659 187.472 599.953 187.778 600.325 188.006C600.709 188.222 601.147 188.33 601.639 188.33C602.059 188.33 602.443 188.258 602.791 188.114C603.151 187.958 603.457 187.73 603.709 187.43L605.005 188.744C604.597 189.224 604.099 189.596 603.511 189.86C602.935 190.112 602.311 190.238 601.639 190.238ZM610.217 190.238C609.377 190.238 608.615 190.04 607.931 189.644C607.247 189.236 606.701 188.69 606.293 188.006C605.897 187.322 605.699 186.56 605.699 185.72C605.699 184.88 605.897 184.124 606.293 183.452C606.701 182.78 607.247 182.246 607.931 181.85C608.615 181.442 609.377 181.238 610.217 181.238C611.069 181.238 611.837 181.436 612.521 181.832C613.205 182.228 613.745 182.768 614.141 183.452C614.549 184.124 614.753 184.88 614.753 185.72C614.753 186.56 614.549 187.322 614.141 188.006C613.745 188.69 613.205 189.236 612.521 189.644C611.837 190.04 611.069 190.238 610.217 190.238ZM610.217 188.33C610.709 188.33 611.141 188.222 611.513 188.006C611.897 187.778 612.191 187.466 612.395 187.07C612.611 186.674 612.719 186.224 612.719 185.72C612.719 185.216 612.611 184.772 612.395 184.388C612.179 184.004 611.885 183.704 611.513 183.488C611.141 183.26 610.709 183.146 610.217 183.146C609.737 183.146 609.305 183.26 608.921 183.488C608.549 183.704 608.255 184.004 608.039 184.388C607.835 184.772 607.733 185.216 607.733 185.72C607.733 186.224 607.835 186.674 608.039 187.07C608.255 187.466 608.549 187.778 608.921 188.006C609.305 188.222 609.737 188.33 610.217 188.33ZM622.321 190.058V185.072C622.321 184.496 622.135 184.022 621.763 183.65C621.403 183.278 620.935 183.092 620.359 183.092C619.975 183.092 619.633 183.176 619.333 183.344C619.033 183.512 618.799 183.746 618.631 184.046C618.463 184.346 618.379 184.688 618.379 185.072L617.605 184.64C617.605 183.98 617.749 183.398 618.037 182.894C618.325 182.378 618.721 181.976 619.225 181.688C619.741 181.388 620.317 181.238 620.953 181.238C621.601 181.238 622.177 181.406 622.681 181.742C623.185 182.066 623.581 182.492 623.869 183.02C624.157 183.536 624.301 184.076 624.301 184.64V190.058H622.321ZM616.399 190.058V181.418H618.379V190.058H616.399ZM629.931 190.238C629.151 190.238 628.443 190.04 627.807 189.644C627.183 189.248 626.685 188.714 626.313 188.042C625.953 187.358 625.773 186.596 625.773 185.756C625.773 184.904 625.953 184.142 626.313 183.47C626.685 182.786 627.183 182.246 627.807 181.85C628.443 181.442 629.151 181.238 629.931 181.238C630.591 181.238 631.173 181.382 631.677 181.67C632.193 181.946 632.601 182.33 632.901 182.822C633.201 183.314 633.351 183.872 633.351 184.496V186.98C633.351 187.604 633.201 188.162 632.901 188.654C632.613 189.146 632.211 189.536 631.695 189.824C631.179 190.1 630.591 190.238 629.931 190.238ZM630.255 188.366C630.747 188.366 631.173 188.258 631.533 188.042C631.905 187.814 632.193 187.502 632.397 187.106C632.601 186.71 632.703 186.254 632.703 185.738C632.703 185.222 632.601 184.766 632.397 184.37C632.193 183.974 631.905 183.668 631.533 183.452C631.173 183.224 630.747 183.11 630.255 183.11C629.775 183.11 629.349 183.224 628.977 183.452C628.617 183.668 628.329 183.974 628.113 184.37C627.909 184.766 627.807 185.222 627.807 185.738C627.807 186.254 627.909 186.71 628.113 187.106C628.329 187.502 628.617 187.814 628.977 188.042C629.349 188.258 629.775 188.366 630.255 188.366ZM634.557 190.058H632.577V187.736L632.919 185.63L632.577 183.542V177.098H634.557V190.058ZM639.581 190.238C639.101 190.238 638.639 190.178 638.195 190.058C637.751 189.926 637.343 189.746 636.971 189.518C636.599 189.278 636.275 188.99 635.999 188.654L637.259 187.394C637.559 187.742 637.901 188.006 638.285 188.186C638.681 188.354 639.125 188.438 639.617 188.438C640.061 188.438 640.397 188.372 640.625 188.24C640.853 188.108 640.967 187.916 640.967 187.664C640.967 187.4 640.859 187.196 640.643 187.052C640.427 186.908 640.145 186.788 639.797 186.692C639.461 186.584 639.101 186.476 638.717 186.368C638.345 186.26 637.985 186.116 637.637 185.936C637.301 185.744 637.025 185.486 636.809 185.162C636.593 184.838 636.485 184.418 636.485 183.902C636.485 183.35 636.611 182.876 636.863 182.48C637.127 182.084 637.493 181.778 637.961 181.562C638.441 181.346 639.011 181.238 639.671 181.238C640.367 181.238 640.979 181.364 641.507 181.616C642.047 181.856 642.497 182.222 642.857 182.714L641.597 183.974C641.345 183.662 641.057 183.428 640.733 183.272C640.409 183.116 640.037 183.038 639.617 183.038C639.221 183.038 638.915 183.098 638.699 183.218C638.483 183.338 638.375 183.512 638.375 183.74C638.375 183.98 638.483 184.166 638.699 184.298C638.915 184.43 639.191 184.544 639.527 184.64C639.875 184.736 640.235 184.844 640.607 184.964C640.991 185.072 641.351 185.228 641.687 185.432C642.035 185.624 642.317 185.888 642.533 186.224C642.749 186.548 642.857 186.974 642.857 187.502C642.857 188.342 642.563 189.008 641.975 189.5C641.387 189.992 640.589 190.238 639.581 190.238Z" fill="white"/>
</svg>
