<svg width="273" height="267" viewBox="0 0 273 267" fill="none" xmlns="http://www.w3.org/2000/svg">
<path d="M127.844 222.439C127.844 222.439 119.863 263.711 81.5586 265.241C62.2388 266.05 38.6714 259.296 25.9267 244.061C-5.78851 206.402 76.9077 143.434 104.441 182.9C122.876 209.333 89.1445 236.252 64.5255 235.935C40.6636 235.778 13.7891 221.504 4.57024 198.615C-1.11302 184.406 2.21804 167.99 10.1487 155.247C15.9106 146.007 24.7455 138.689 35.0453 135.646C58.9633 128.839 86.344 141.476 110.844 141.61C132.792 141.836 152.838 133.888 161.85 112.338C181.156 66.1797 151.235 28.2676 117.09 44.4759C96.8729 53.9728 112.212 77.8452 124.398 86.7775C137.395 96.3579 158.296 97.788 171.149 87.2014C181.485 78.7754 180.592 65.1086 180.134 53.1196C179.566 40.1561 178.956 28.1349 187.138 17.1897C193.992 8.02341 205.336 1.5557 216.776 2.08461C243.482 3.00462 272.253 21.0117 271.22 50.4416" stroke="#EA4334" stroke-width="3" stroke-miterlimit="10" stroke-linecap="round"/>
</svg>
