<svg width="291" height="250" viewBox="0 0 291 250" fill="none" xmlns="http://www.w3.org/2000/svg">
<path d="M283.564 23.1977C283.564 23.1977 292.928 26.7837 287.6 14.5428C282.271 2.30186 266.131 -5.22455 246.127 11.9848C226.124 29.1942 220.608 63.8258 247.766 74.2785C274.924 84.7312 280.445 70.0046 280.445 70.0046C280.445 70.0046 289.353 50.6132 260.873 40.975C232.443 31.23 208.796 57.4073 201.213 70.7823C193.68 84.0504 184.928 120.425 211.233 133.862C238.594 147.922 268.576 113.642 228.91 95.6654C189.294 77.5822 171.397 113.075 167.497 126.346C163.597 139.617 167.345 168.813 192.717 179.343C218.089 189.873 239.363 165.321 202.842 148.682C192.732 144.097 180.653 141.717 170.796 147.267C150.022 158.914 164.786 184.4 160.762 202.557C156.332 222.735 134.947 228.764 116.356 223.607C99.1912 218.855 71.3945 203.421 78.6004 182.196C80.7771 175.796 86.5802 170.567 93.4204 169.464C113.88 165.996 132.437 200.666 118.225 214.982C108.853 224.401 91.1272 223.16 79.2032 219.291C78.9821 219.187 78.6007 219.14 78.3796 219.037C47.0967 208.482 15.4123 222.456 2.00001 248.332" stroke="#1976D2" stroke-width="3" stroke-miterlimit="10" stroke-linecap="round"/>
</svg>
