<svg width="297" height="235" viewBox="0 0 297 235" fill="none" xmlns="http://www.w3.org/2000/svg">
<path d="M179.042 34.807C179.042 34.807 195.43 -3.90331 233.215 2.56413C252.281 5.78996 273.929 17.2959 283.228 34.8474C306.42 78.2777 212.439 122.676 193.713 78.348C181.177 48.6597 219.768 29.3419 243.783 34.7713C267.091 39.8859 290.41 59.4358 294.669 83.7409C297.274 98.8214 290.602 114.186 280.195 125.001C272.638 132.841 262.475 138.163 251.768 138.998C226.957 140.684 202.802 122.629 178.866 117.405C157.444 112.62 136.183 116.227 122.888 135.433C94.4073 176.568 115.792 219.872 152.561 211.118C174.31 206.032 164.269 179.491 154.207 168.221C143.486 156.148 123.339 150.403 108.566 158.086C96.7039 164.179 94.7359 177.733 92.6916 189.555C90.5516 202.353 88.6487 214.239 78.3702 223.244C69.7602 230.785 57.3191 234.752 46.2395 231.857C20.308 225.404 -4.09072 201.809 3.03889 173.237" stroke="#EA4334" stroke-width="3" stroke-miterlimit="10" stroke-linecap="round"/>
</svg>
